<?xml version="1.0" encoding="UTF-8" standalone="no"?>
<!-- Created with Inkscape (http://www.inkscape.org/) -->

<svg
   width="900"
   height="900"
   viewBox="0 0 238.12499 238.125"
   version="1.1"
   id="svg1"
   inkscape:version="1.3.2 (091e20ef0f, 2023-11-25, custom)"
   sodipodi:docname="cross_pattern.svg"
   inkscape:export-filename="cross_pattern.png"
   inkscape:export-xdpi="100"
   inkscape:export-ydpi="100"
   xmlns:inkscape="http://www.inkscape.org/namespaces/inkscape"
   xmlns:sodipodi="http://sodipodi.sourceforge.net/DTD/sodipodi-0.dtd"
   xmlns="http://www.w3.org/2000/svg"
   xmlns:svg="http://www.w3.org/2000/svg">
  <sodipodi:namedview
     id="namedview1"
     pagecolor="#505050"
     bordercolor="#ffffff"
     borderopacity="1"
     inkscape:showpageshadow="0"
     inkscape:pageopacity="0"
     inkscape:pagecheckerboard="1"
     inkscape:deskcolor="#d1d1d1"
     inkscape:document-units="mm"
     showguides="true"
     inkscape:zoom="0.38712084"
     inkscape:cx="383.60115"
     inkscape:cy="415.89081"
     inkscape:window-width="1536"
     inkscape:window-height="864"
     inkscape:window-x="0"
     inkscape:window-y="0"
     inkscape:window-maximized="0"
     inkscape:current-layer="layer1" />
  <defs
     id="defs1" />
  <g
     inkscape:label="Layer 1"
     inkscape:groupmode="layer"
     id="layer1">
    <path
       id="rect1"
       style="fill:#ffff59;stroke-width:3.96875;stroke-linecap:round;stroke-linejoin:round;stroke-dashoffset:7.70457;paint-order:stroke fill markers;stroke:#000000;stroke-opacity:1;stroke-dasharray:none"
       d="m 13.229167,1.3229167 c -1.099343,0 -1.984375,0.8850324 -1.984375,1.984375 V 11.244792 H 3.3072917 c -1.0993426,0 -1.984375,0.885032 -1.984375,1.984375 0,1.099343 0.8850324,1.984375 1.984375,1.984375 h 7.9375003 v 7.9375 c 0,1.099342 0.885032,1.984375 1.984375,1.984375 1.099343,0 1.984375,-0.885033 1.984375,-1.984375 v -7.9375 h 7.9375 c 1.099343,0 1.984375,-0.885032 1.984375,-1.984375 0,-1.099343 -0.885032,-1.984375 -1.984375,-1.984375 h -7.9375 V 3.3072917 c 0,-1.0993426 -0.885032,-1.984375 -1.984375,-1.984375 z" />
    <path
       id="rect1-2"
       style="fill:#ffff59;stroke-width:3.96875;stroke-linecap:round;stroke-linejoin:round;stroke-dashoffset:7.70457;paint-order:stroke fill markers;stroke:#000000;stroke-opacity:1;stroke-dasharray:none"
       d="M 41.754999,1.5037994 C 40.672357,1.3129005 39.647086,2.0308031 39.456188,3.1134442 L 38.077855,10.930356 30.260944,9.5520236 c -1.082641,-0.1908989 -2.107912,0.5270034 -2.298811,1.6096444 -0.190899,1.082642 0.527003,2.107913 1.609644,2.298811 l 7.816912,1.378333 -1.378332,7.816911 c -0.190899,1.082641 0.527003,2.107912 1.609644,2.298811 1.082642,0.190899 2.107913,-0.527004 2.298811,-1.609644 l 1.378333,-7.816912 7.816911,1.378332 c 1.082642,0.190899 2.107912,-0.527003 2.298811,-1.609644 0.190899,-1.082642 -0.527003,-2.107912 -1.609645,-2.298811 L 41.986311,11.619522 43.364643,3.8026104 C 43.555542,2.7199693 42.83764,1.6946983 41.754999,1.5037994 Z" />
    <path
       id="rect1-2-7"
       style="fill:#ffff59;stroke-width:3.96875;stroke-linecap:round;stroke-linejoin:round;stroke-dashoffset:7.70457;paint-order:stroke fill markers;stroke:#000000;stroke-opacity:1;stroke-dasharray:none"
       d="M 70.218011,2.0409515 C 69.184966,1.664954 68.050608,2.1939136 67.674612,3.2269578 L 64.959826,10.685768 57.501017,7.9709834 c -1.033044,-0.3759974 -2.167401,0.152962 -2.543399,1.1860059 -0.375998,1.0330447 0.152961,2.1674027 1.186006,2.5433987 l 7.45881,2.714786 -2.714784,7.458809 c -0.375998,1.033044 0.152961,2.167401 1.186005,2.543399 1.033045,0.375998 2.167403,-0.152962 2.543399,-1.186006 l 2.714785,-7.45881 7.45881,2.714784 c 1.033045,0.375998 2.167401,-0.152961 2.543399,-1.186005 0.375997,-1.033045 -0.152962,-2.167402 -1.186007,-2.543399 L 68.689232,12.04316 71.404016,4.5843502 C 71.780014,3.5513061 71.251055,2.4169489 70.218011,2.0409515 Z" />
    <path
       id="rect1-2-7-6"
       style="fill:#ffff59;stroke-width:3.96875;stroke-linecap:round;stroke-linejoin:round;stroke-dashoffset:7.70457;paint-order:stroke fill markers;stroke:#000000;stroke-opacity:1;stroke-dasharray:none"
       d="M 98.557292,2.918052 C 97.605232,2.3683803 96.396255,2.6923246 95.846585,3.6443836 L 91.877834,10.51846 85.003758,6.5497105 C 84.0517,6.0000392 82.842723,6.3239835 82.293051,7.2760417 81.743379,8.2281008 82.067323,9.4370781 83.019383,9.9867483 l 6.874076,3.9687507 -3.968749,6.874076 c -0.549672,0.952058 -0.225728,2.161035 0.72633,2.710707 0.95206,0.549672 2.161037,0.225727 2.710707,-0.726332 l 3.96875,-6.874076 6.874073,3.968749 c 0.95206,0.549672 2.16104,0.225728 2.71071,-0.72633 0.54967,-0.95206 0.22573,-2.161036 -0.72633,-2.710707 L 95.314873,12.502835 99.283622,5.6287583 C 99.833294,4.6766999 99.50935,3.4677233 98.557292,2.918052 Z" />
    <path
       id="rect1-2-7-6-6"
       style="fill:#ffff59;stroke-width:3.96875;stroke-linecap:round;stroke-linejoin:round;stroke-dashoffset:7.70457;paint-order:stroke fill markers;stroke:#000000;stroke-opacity:1;stroke-dasharray:none"
       d="m 126.71569,4.1084518 c -0.84214,-0.7066444 -2.08901,-0.5975587 -2.79565,0.2445872 l -5.10213,6.080477 -6.08048,-5.1021262 c -0.84214,-0.7066441 -2.089,-0.5975567 -2.79565,0.2445867 -0.70664,0.842146 -0.59755,2.0890095 0.24459,2.7956525 l 6.08048,5.102126 -5.10213,6.080477 c -0.70664,0.842145 -0.59755,2.089008 0.24459,2.795651 0.84214,0.706645 2.08901,0.597559 2.79565,-0.244587 l 5.10213,-6.080477 6.08047,5.102124 c 0.84214,0.706645 2.08901,0.59756 2.79565,-0.244585 0.70664,-0.842147 0.59756,-2.089008 -0.24458,-2.795651 l -6.08048,-5.102127 5.10213,-6.0804777 c 0.70664,-0.8421453 0.59755,-2.0890082 -0.24459,-2.7956505 z" />
    <path
       id="rect1-2-7-6-6-9"
       style="fill:#ffff59;stroke-width:3.96875;stroke-linecap:round;stroke-linejoin:round;stroke-dashoffset:7.70457;paint-order:stroke fill markers;stroke:#000000;stroke-opacity:1;stroke-dasharray:none"
       d="M 154.64155,5.575979 C 153.93491,4.733834 152.68804,4.6247458 151.8459,5.3313908 l -6.08048,5.1021252 -5.10213,-6.0804776 c -0.70664,-0.8421446 -1.9535,-0.9512295 -2.79565,-0.2445886 -0.84214,0.7066451 -0.95123,1.9535093 -0.24459,2.7956528 l 5.10213,6.0804774 -6.08048,5.102125 c -0.84214,0.706645 -0.95123,1.953508 -0.24459,2.795652 0.70664,0.842145 1.95351,0.951233 2.79565,0.244588 l 6.08048,-5.102125 5.10212,6.080474 c 0.70664,0.842145 1.95351,0.951234 2.79565,0.24459 0.84215,-0.706646 0.95124,-1.953506 0.2446,-2.79565 l -5.10213,-6.080478 6.08048,-5.1021261 c 0.84214,-0.7066445 0.95123,-1.953508 0.24459,-2.7956509 z" />
    <path
       id="rect1-2-7-6-6-9-3"
       style="fill:#ffff59;stroke-width:3.96875;stroke-linecap:round;stroke-linejoin:round;stroke-dashoffset:7.70457;paint-order:stroke fill markers;stroke:#000000;stroke-opacity:1;stroke-dasharray:none"
       d="m 182.29028,7.2760445 c -0.54967,-0.9520576 -1.75865,-1.2760052 -2.71071,-0.7263318 l -6.87408,3.9687483 -3.96875,-6.8740772 c -0.54967,-0.9520573 -1.75864,-1.2759999 -2.7107,-0.7263323 -0.95206,0.5496735 -1.27601,1.7586517 -0.72634,2.7107079 l 3.96875,6.8740766 -6.87407,3.968748 c -0.95206,0.549674 -1.27601,1.758651 -0.72634,2.710707 0.54967,0.952058 1.75865,1.276006 2.71071,0.726332 l 6.87408,-3.968748 3.96874,6.874072 c 0.54967,0.952058 1.75865,1.276006 2.71071,0.726334 0.95206,-0.549673 1.27601,-1.758647 0.72634,-2.710704 l -3.96875,-6.874077 6.87407,-3.9687494 c 0.95206,-0.5496729 1.27601,-1.7586505 0.72634,-2.7107061 z" />
    <path
       id="rect1-2-7-6-6-9-3-7"
       style="fill:#ffff59;stroke-width:3.96875;stroke-linecap:round;stroke-linejoin:round;stroke-dashoffset:7.70457;paint-order:stroke fill markers;stroke:#000000;stroke-opacity:1;stroke-dasharray:none"
       d="m 209.62571,9.156993 c -0.376,-1.0330429 -1.51036,-1.5620062 -2.5434,-1.186007 l -7.45882,2.714783 -2.71478,-7.4588111 c -0.376,-1.0330426 -1.51035,-1.5619993 -2.54339,-1.1860058 -1.03305,0.3759992 -1.56201,1.510357 -1.18602,2.5433985 l 2.71479,7.4588104 -7.45881,2.714784 c -1.03304,0.376 -1.56201,1.510356 -1.18601,2.543397 0.376,1.033044 1.51036,1.562007 2.5434,1.186008 l 7.45882,-2.714783 2.71477,7.458804 c 0.376,1.033044 1.51036,1.562007 2.5434,1.186009 1.03305,-0.375998 1.56201,-1.510352 1.18602,-2.543394 l -2.71479,-7.458811 7.45881,-2.714785 c 1.03304,-0.375999 1.56201,-1.510356 1.18601,-2.543397 z" />
    <path
       id="rect1-2-7-6-6-9-3-7-2"
       style="fill:#ffff59;stroke-width:3.96875;stroke-linecap:round;stroke-linejoin:round;stroke-dashoffset:7.70457;paint-order:stroke fill markers;stroke:#000000;stroke-opacity:1;stroke-dasharray:none"
       d="m 236.62119,11.161672 c -0.1909,-1.08264 -1.21617,-1.8005466 -2.29881,-1.6096452 l -7.81692,1.3783292 -1.37833,-7.8169119 c -0.1909,-1.0826401 -1.21617,-1.8005386 -2.2988,-1.6096428 -1.08265,0.1908997 -1.80055,1.2161711 -1.60966,2.2988084 l 1.37834,7.8169123 -7.81691,1.378332 c -1.08264,0.190902 -1.80055,1.21617 -1.60965,2.298808 0.1909,1.082642 1.21617,1.800548 2.29881,1.609647 l 7.81692,-1.378329 1.37832,7.816903 c 0.1909,1.082642 1.21617,1.800548 2.29881,1.609648 1.08265,-0.190899 1.80055,-1.216166 1.60966,-2.298804 l -1.37834,-7.816913 7.81691,-1.378333 c 1.08264,-0.190901 1.80055,-1.21617 1.60965,-2.298809 z" />
    <path
       id="rect1-2-9"
       style="fill:#ffff59;stroke-width:3.96875;stroke-linecap:round;stroke-linejoin:round;stroke-dashoffset:7.70457;paint-order:stroke fill markers;stroke:#000000;stroke-opacity:1;stroke-dasharray:none"
       d="m 15.296666,27.962133 c -1.082642,-0.190899 -2.107913,0.527003 -2.298811,1.609645 l -1.378333,7.816911 -7.8169113,-1.378332 c -1.082641,-0.190899 -2.107912,0.527003 -2.298811,1.609644 -0.190899,1.082642 0.527003,2.107913 1.609644,2.298811 l 7.8169123,1.378333 -1.3783323,7.816911 c -0.190899,1.082641 0.5270033,2.107912 1.6096443,2.298811 1.082642,0.190899 2.107913,-0.527004 2.298811,-1.609644 l 1.378333,-7.816912 7.816911,1.378332 c 1.082642,0.190899 2.107912,-0.527003 2.298811,-1.609644 0.190899,-1.082642 -0.527003,-2.107912 -1.609645,-2.298811 l -7.816911,-1.378333 1.378332,-7.816911 c 0.190899,-1.082641 -0.527003,-2.107912 -1.609644,-2.298811 z" />
    <path
       id="rect1-2-7-4"
       style="fill:#ffff59;stroke-width:3.96875;stroke-linecap:round;stroke-linejoin:round;stroke-dashoffset:7.70457;paint-order:stroke fill markers;stroke:#000000;stroke-opacity:1;stroke-dasharray:none"
       d="m 43.759678,28.499285 c -1.033045,-0.375998 -2.167403,0.152962 -2.543399,1.186006 l -2.714786,7.45881 -7.458809,-2.714784 c -1.033044,-0.375998 -2.167401,0.152962 -2.543399,1.186006 -0.375998,1.033044 0.152961,2.167402 1.186006,2.543398 l 7.45881,2.714786 -2.714784,7.458809 c -0.375998,1.033044 0.152961,2.167401 1.186005,2.543399 1.033045,0.375998 2.167403,-0.152962 2.543399,-1.186006 l 2.714785,-7.45881 7.45881,2.714784 c 1.033045,0.375998 2.167401,-0.152961 2.543399,-1.186005 0.375997,-1.033045 -0.152962,-2.167402 -1.186007,-2.543399 l -7.458809,-2.714786 2.714784,-7.458809 c 0.375998,-1.033045 -0.152961,-2.167402 -1.186005,-2.543399 z" />
    <path
       id="rect1-2-7-6-7"
       style="fill:#ffff59;stroke-width:3.96875;stroke-linecap:round;stroke-linejoin:round;stroke-dashoffset:7.70457;paint-order:stroke fill markers;stroke:#000000;stroke-opacity:1;stroke-dasharray:none"
       d="m 72.098959,29.376385 c -0.95206,-0.549671 -2.161037,-0.225727 -2.710707,0.726332 l -3.968751,6.874076 -6.874076,-3.968749 c -0.952058,-0.549671 -2.161035,-0.225727 -2.710707,0.726331 -0.549672,0.952059 -0.225728,2.161036 0.726332,2.710707 l 6.874076,3.96875 -3.968749,6.874076 c -0.549672,0.952058 -0.225728,2.161035 0.72633,2.710707 0.95206,0.549672 2.161037,0.225727 2.710707,-0.726332 l 3.96875,-6.874076 6.874073,3.968749 c 0.95206,0.549672 2.16104,0.225728 2.71071,-0.72633 0.54967,-0.95206 0.22573,-2.161036 -0.72633,-2.710707 l -6.874077,-3.968751 3.968749,-6.874076 c 0.549672,-0.952059 0.225728,-2.161035 -0.72633,-2.710707 z" />
    <path
       id="rect1-2-7-6-6-8"
       style="fill:#ffff59;stroke-width:3.96875;stroke-linecap:round;stroke-linejoin:round;stroke-dashoffset:7.70457;paint-order:stroke fill markers;stroke:#000000;stroke-opacity:1;stroke-dasharray:none"
       d="m 100.25736,30.566785 c -0.842143,-0.706644 -2.089013,-0.597559 -2.795653,0.244587 l -5.10213,6.080477 -6.08048,-5.102126 c -0.84214,-0.706644 -2.089,-0.597557 -2.79565,0.244587 -0.70664,0.842146 -0.59755,2.089009 0.24459,2.795652 l 6.08048,5.102126 -5.10213,6.080477 c -0.70664,0.842145 -0.59755,2.089008 0.24459,2.795651 0.84214,0.706645 2.08901,0.597559 2.79565,-0.244587 l 5.10213,-6.080477 6.08047,5.102124 c 0.84214,0.706645 2.089013,0.59756 2.795653,-0.244585 0.70664,-0.842147 0.59756,-2.089008 -0.24458,-2.795651 l -6.080483,-5.102127 5.102133,-6.080477 c 0.70664,-0.842146 0.59755,-2.089009 -0.24459,-2.795651 z" />
    <path
       id="rect1-2-7-6-6-9-4"
       style="fill:#ffff59;stroke-width:3.96875;stroke-linecap:round;stroke-linejoin:round;stroke-dashoffset:7.70457;paint-order:stroke fill markers;stroke:#000000;stroke-opacity:1;stroke-dasharray:none"
       d="m 128.18322,32.034312 c -0.70664,-0.842145 -1.95351,-0.951233 -2.79565,-0.244588 l -6.08048,5.102125 -5.10213,-6.080477 c -0.70664,-0.842145 -1.9535,-0.95123 -2.79565,-0.244589 -0.84214,0.706645 -0.95123,1.953509 -0.24459,2.795653 l 5.10213,6.080477 -6.08048,5.102125 c -0.84214,0.706645 -0.95123,1.953508 -0.24459,2.795652 0.70664,0.842145 1.95351,0.951233 2.79565,0.244588 l 6.08048,-5.102125 5.10212,6.080474 c 0.70664,0.842145 1.95351,0.951234 2.79565,0.24459 0.84215,-0.706646 0.95124,-1.953506 0.2446,-2.79565 l -5.10213,-6.080478 6.08048,-5.102126 c 0.84214,-0.706644 0.95123,-1.953508 0.24459,-2.795651 z" />
    <path
       id="rect1-2-7-6-6-9-3-5"
       style="fill:#ffff59;stroke-width:3.96875;stroke-linecap:round;stroke-linejoin:round;stroke-dashoffset:7.70457;paint-order:stroke fill markers;stroke:#000000;stroke-opacity:1;stroke-dasharray:none"
       d="m 155.83195,33.734378 c -0.54967,-0.952058 -1.75865,-1.276005 -2.71071,-0.726332 l -6.87408,3.968748 -3.96875,-6.874077 c -0.54967,-0.952057 -1.75864,-1.276 -2.7107,-0.726332 -0.95206,0.549673 -1.27601,1.758652 -0.72634,2.710708 l 3.96875,6.874076 -6.87407,3.968748 c -0.95206,0.549674 -1.27601,1.758651 -0.72634,2.710707 0.54967,0.952058 1.75865,1.276006 2.71071,0.726332 l 6.87408,-3.968748 3.96874,6.874072 c 0.54967,0.952058 1.75865,1.276006 2.71071,0.726334 0.95206,-0.549673 1.27601,-1.758647 0.72634,-2.710704 l -3.96875,-6.874077 6.87407,-3.968749 c 0.95206,-0.549673 1.27601,-1.758651 0.72634,-2.710706 z" />
    <path
       id="rect1-2-7-6-6-9-3-7-0"
       style="fill:#ffff59;stroke-width:3.96875;stroke-linecap:round;stroke-linejoin:round;stroke-dashoffset:7.70457;paint-order:stroke fill markers;stroke:#000000;stroke-opacity:1;stroke-dasharray:none"
       d="m 183.16738,35.615326 c -0.376,-1.033043 -1.51036,-1.562006 -2.5434,-1.186007 l -7.45882,2.714783 -2.71478,-7.458811 c -0.376,-1.033042 -1.51035,-1.561999 -2.54339,-1.186006 -1.03305,0.376 -1.56201,1.510357 -1.18602,2.543399 l 2.71479,7.45881 -7.45881,2.714784 c -1.03304,0.376 -1.56201,1.510356 -1.18601,2.543397 0.376,1.033044 1.51036,1.562007 2.5434,1.186008 l 7.45882,-2.714783 2.71477,7.458804 c 0.376,1.033044 1.51036,1.562007 2.5434,1.186009 1.03305,-0.375998 1.56201,-1.510352 1.18602,-2.543394 l -2.71479,-7.458811 7.45881,-2.714785 c 1.03304,-0.375999 1.56201,-1.510356 1.18601,-2.543397 z" />
    <path
       id="rect1-2-7-6-6-9-3-7-2-3"
       style="fill:#ffff59;stroke-width:3.96875;stroke-linecap:round;stroke-linejoin:round;stroke-dashoffset:7.70457;paint-order:stroke fill markers;stroke:#000000;stroke-opacity:1;stroke-dasharray:none"
       d="m 210.16286,37.620005 c -0.1909,-1.08264 -1.21617,-1.800546 -2.29881,-1.609645 l -7.81692,1.378329 -1.37833,-7.816912 c -0.1909,-1.08264 -1.21617,-1.800538 -2.2988,-1.609642 -1.08265,0.190899 -1.80055,1.216171 -1.60966,2.298808 l 1.37834,7.816912 -7.81691,1.378332 c -1.08264,0.190902 -1.80055,1.21617 -1.60965,2.298808 0.1909,1.082642 1.21617,1.800548 2.29881,1.609647 l 7.81692,-1.378329 1.37832,7.816903 c 0.1909,1.082642 1.21617,1.800548 2.29881,1.609648 1.08265,-0.190899 1.80055,-1.216166 1.60966,-2.298804 l -1.37834,-7.816913 7.81691,-1.378333 c 1.08264,-0.190901 1.80055,-1.21617 1.60965,-2.298809 z" />
    <path
       id="rect1-2-7-6-6-9-3-7-2-3-6"
       style="fill:#ffff59;stroke-width:3.96875;stroke-linecap:round;stroke-linejoin:round;stroke-dashoffset:7.70457;paint-order:stroke fill markers;stroke:#000000;stroke-opacity:1;stroke-dasharray:none"
       d="m 236.80207,39.687504 c 0,-1.099342 -0.88503,-1.984377 -1.98437,-1.984375 l -7.93751,-5e-6 0,-7.9375 c 0,-1.099342 -0.88503,-1.984369 -1.98436,-1.98437 -1.09935,-2e-6 -1.98438,0.885032 -1.98439,1.984369 l 1e-5,7.937502 -7.9375,0 c -1.09934,3e-6 -1.98438,0.885031 -1.98438,1.984371 0,1.099344 0.88503,1.984379 1.98437,1.984377 l 7.93751,5e-6 -1e-5,7.937489 c 0,1.099344 0.88503,1.98438 1.98437,1.984378 1.09935,2e-6 1.98438,-0.885027 1.98439,-1.984365 l -1e-5,-7.937503 7.9375,-1e-6 c 1.09934,-2e-6 1.98438,-0.885031 1.98438,-1.984372 z" />
    <path
       id="rect1-2-9-8"
       style="fill:#ffff59;stroke-width:3.96875;stroke-linecap:round;stroke-linejoin:round;stroke-dashoffset:7.70457;paint-order:stroke fill markers;stroke:#000000;stroke-opacity:1;stroke-dasharray:none"
       d="M 17.301345,54.957618 C 16.2683,54.581621 15.133942,55.11058 14.757946,56.143625 L 12.04316,63.602434 4.5843504,60.88765 C 3.5513065,60.511652 2.4169493,61.040611 2.0409518,62.073655 1.6649542,63.1067 2.1939132,64.241057 3.2269574,64.617054 l 7.4588106,2.714786 -2.7147845,7.458809 c -0.3759975,1.033044 0.1529619,2.167401 1.1860058,2.543399 1.0330447,0.375998 2.1674027,-0.152962 2.5433987,-1.186006 l 2.714786,-7.45881 7.458809,2.714784 c 1.033045,0.375998 2.167401,-0.152961 2.543399,-1.186005 0.375998,-1.033045 -0.152962,-2.167402 -1.186007,-2.543399 l -7.458809,-2.714786 2.714784,-7.458809 c 0.375998,-1.033044 -0.152961,-2.167401 -1.186005,-2.543399 z" />
    <path
       id="rect1-2-7-4-6"
       style="fill:#ffff59;stroke-width:3.96875;stroke-linecap:round;stroke-linejoin:round;stroke-dashoffset:7.70457;paint-order:stroke fill markers;stroke:#000000;stroke-opacity:1;stroke-dasharray:none"
       d="m 45.640626,55.834718 c -0.95206,-0.549672 -2.161037,-0.225727 -2.710707,0.726332 l -3.968751,6.874076 -6.874076,-3.968749 c -0.952058,-0.549672 -2.161035,-0.225727 -2.710707,0.726331 -0.549672,0.952059 -0.225728,2.161036 0.726332,2.710706 l 6.874076,3.968751 -3.968749,6.874076 c -0.549672,0.952058 -0.225728,2.161035 0.72633,2.710707 0.95206,0.549672 2.161037,0.225727 2.710707,-0.726332 l 3.96875,-6.874076 6.874077,3.968749 c 0.952059,0.549672 2.161035,0.225728 2.710707,-0.72633 0.549671,-0.95206 0.225727,-2.161036 -0.726333,-2.710707 l -6.874075,-3.968751 3.968749,-6.874076 c 0.549672,-0.952059 0.225728,-2.161036 -0.72633,-2.710707 z" />
    <path
       id="rect1-2-7-6-7-8"
       style="fill:#ffff59;stroke-width:3.96875;stroke-linecap:round;stroke-linejoin:round;stroke-dashoffset:7.70457;paint-order:stroke fill markers;stroke:#000000;stroke-opacity:1;stroke-dasharray:none"
       d="m 73.799024,57.025117 c -0.842147,-0.706644 -2.089009,-0.597558 -2.795652,0.244588 l -5.102127,6.080477 -6.080477,-5.102126 c -0.842145,-0.706643 -2.089007,-0.597557 -2.795652,0.244587 -0.706644,0.842146 -0.597558,2.089008 0.244588,2.795652 l 6.080478,5.102126 -5.102126,6.080477 c -0.706644,0.842145 -0.597558,2.089007 0.244586,2.795652 0.842147,0.706644 2.089009,0.597557 2.795652,-0.244588 l 5.102126,-6.080478 6.080474,5.102125 c 0.842147,0.706645 2.089012,0.59756 2.795655,-0.244585 0.706642,-0.842147 0.59756,-2.089007 -0.244587,-2.795651 l -6.080477,-5.102128 5.102125,-6.080477 c 0.706645,-0.842146 0.597559,-2.089007 -0.244586,-2.795651 z" />
    <path
       id="rect1-2-7-6-6-8-8"
       style="fill:#ffff59;stroke-width:3.96875;stroke-linecap:round;stroke-linejoin:round;stroke-dashoffset:7.70457;paint-order:stroke fill markers;stroke:#000000;stroke-opacity:1;stroke-dasharray:none"
       d="M 101.72489,58.492645 C 101.01824,57.6505 99.771375,57.541411 98.929234,58.248057 l -6.080481,5.102125 -5.102129,-6.080478 c -0.706639,-0.842144 -1.953499,-0.951229 -2.79565,-0.244588 -0.842142,0.706645 -0.951225,1.953509 -0.244586,2.795652 l 5.102129,6.080478 -6.080481,5.102125 c -0.842141,0.706644 -0.951224,1.953508 -0.244585,2.795652 0.706638,0.842145 1.953508,0.951233 2.795649,0.244588 l 6.080481,-5.102125 5.10212,6.080473 c 0.706638,0.842146 1.953511,0.951235 2.795649,0.244591 0.84215,-0.706646 0.95124,-1.953506 0.2446,-2.795649 l -5.102133,-6.080479 6.080483,-5.102125 c 0.84214,-0.706645 0.95123,-1.953509 0.24459,-2.795652 z" />
    <path
       id="rect1-2-7-6-6-9-4-4"
       style="fill:#ffff59;stroke-width:3.96875;stroke-linecap:round;stroke-linejoin:round;stroke-dashoffset:7.70457;paint-order:stroke fill markers;stroke:#000000;stroke-opacity:1;stroke-dasharray:none"
       d="m 129.37362,60.192711 c -0.54967,-0.952058 -1.75865,-1.276006 -2.71071,-0.726332 l -6.87408,3.968748 -3.96875,-6.874077 c -0.54967,-0.952057 -1.75864,-1.276 -2.7107,-0.726332 -0.95206,0.549673 -1.27601,1.758651 -0.72634,2.710708 l 3.96875,6.874076 -6.87407,3.968748 c -0.95206,0.549674 -1.27601,1.758651 -0.72634,2.710707 0.54967,0.952058 1.75865,1.276006 2.71071,0.726332 l 6.87408,-3.968748 3.96874,6.874072 c 0.54967,0.952058 1.75865,1.276006 2.71071,0.726334 0.95206,-0.549673 1.27601,-1.758647 0.72634,-2.710704 l -3.96875,-6.874077 6.87407,-3.968749 c 0.95206,-0.549673 1.27601,-1.758651 0.72634,-2.710706 z" />
    <path
       id="rect1-2-7-6-6-9-3-5-3"
       style="fill:#ffff59;stroke-width:3.96875;stroke-linecap:round;stroke-linejoin:round;stroke-dashoffset:7.70457;paint-order:stroke fill markers;stroke:#000000;stroke-opacity:1;stroke-dasharray:none"
       d="m 156.70905,62.07366 c -0.376,-1.033044 -1.51036,-1.562006 -2.5434,-1.186008 l -7.45882,2.714783 -2.71478,-7.458811 c -0.376,-1.033042 -1.51035,-1.561999 -2.54339,-1.186005 -1.03305,0.375998 -1.56201,1.510357 -1.18602,2.543398 l 2.71479,7.45881 -7.45881,2.714784 c -1.03304,0.376 -1.56201,1.510356 -1.18601,2.543397 0.376,1.033044 1.51036,1.562007 2.5434,1.186008 l 7.45882,-2.714783 2.71477,7.458804 c 0.376,1.033044 1.51036,1.562007 2.5434,1.186009 1.03305,-0.375998 1.56201,-1.510352 1.18602,-2.543394 l -2.71479,-7.458811 7.45881,-2.714785 c 1.03304,-0.375999 1.56201,-1.510356 1.18601,-2.543396 z" />
    <path
       id="rect1-2-7-6-6-9-3-7-0-1"
       style="fill:#ffff59;stroke-width:3.96875;stroke-linecap:round;stroke-linejoin:round;stroke-dashoffset:7.70457;paint-order:stroke fill markers;stroke:#000000;stroke-opacity:1;stroke-dasharray:none"
       d="m 183.70453,64.078338 c -0.1909,-1.08264 -1.21617,-1.800546 -2.29881,-1.609645 l -7.81692,1.378329 -1.37833,-7.816912 c -0.1909,-1.082639 -1.21617,-1.800538 -2.2988,-1.609643 -1.08265,0.190901 -1.80055,1.216171 -1.60966,2.298809 l 1.37834,7.816912 -7.81691,1.378332 c -1.08264,0.190902 -1.80055,1.21617 -1.60965,2.298808 0.1909,1.082642 1.21617,1.800548 2.29881,1.609647 l 7.81692,-1.378329 1.37832,7.816903 c 0.1909,1.082642 1.21617,1.800548 2.29881,1.609648 1.08265,-0.190899 1.80055,-1.216166 1.60966,-2.298804 l -1.37834,-7.816913 7.81691,-1.378333 c 1.08264,-0.190901 1.80055,-1.21617 1.60965,-2.298809 z" />
    <path
       id="rect1-2-7-6-6-9-3-7-2-3-4"
       style="fill:#ffff59;stroke-width:3.96875;stroke-linecap:round;stroke-linejoin:round;stroke-dashoffset:7.70457;paint-order:stroke fill markers;stroke:#000000;stroke-opacity:1;stroke-dasharray:none"
       d="m 210.34374,66.145837 c 0,-1.099342 -0.88503,-1.984377 -1.98437,-1.984375 l -7.93751,-5e-6 0,-7.9375 c 0,-1.099342 -0.88503,-1.984369 -1.98436,-1.98437 -1.09935,-2e-6 -1.98438,0.885032 -1.98439,1.984369 l 1e-5,7.937502 -7.9375,0 c -1.09934,3e-6 -1.98438,0.885031 -1.98438,1.984371 0,1.099344 0.88503,1.984379 1.98437,1.984377 l 7.93751,5e-6 -1e-5,7.937489 c 0,1.099344 0.88503,1.98438 1.98437,1.984378 1.09935,2e-6 1.98438,-0.885027 1.98439,-1.984365 l -1e-5,-7.937503 7.9375,-1e-6 c 1.09934,-2e-6 1.98438,-0.885031 1.98438,-1.984372 z" />
    <path
       id="rect1-2-7-6-6-9-3-7-2-3-6-9"
       style="fill:#ffff59;stroke-width:3.96875;stroke-linecap:round;stroke-linejoin:round;stroke-dashoffset:7.70457;paint-order:stroke fill markers;stroke:#000000;stroke-opacity:1;stroke-dasharray:none"
       d="m 236.62119,68.213336 c 0.1909,-1.082641 -0.527,-2.107914 -1.60964,-2.298811 l -7.81692,-1.378339 1.37833,-7.816911 c 0.1909,-1.082641 -0.527,-2.107906 -1.60963,-2.298804 -1.08265,-0.190902 -2.10792,0.527003 -2.29883,1.609637 l -1.37832,7.816915 -7.81691,-1.378333 c -1.08264,-0.190895 -2.10792,0.527002 -2.29882,1.60964 -0.1909,1.082643 0.527,2.107916 1.60964,2.298813 l 7.81692,1.378339 -1.37834,7.816899 c -0.1909,1.082642 0.527,2.107916 1.60964,2.298813 1.08265,0.190902 2.10792,-0.526998 2.29883,-1.609633 l 1.37832,-7.816916 7.81691,1.378332 c 1.08264,0.190896 2.10792,-0.527002 2.29882,-1.609641 z" />
    <path
       id="rect1-2-9-8-1"
       style="fill:#ffff59;stroke-width:3.96875;stroke-linecap:round;stroke-linejoin:round;stroke-dashoffset:7.70457;paint-order:stroke fill markers;stroke:#000000;stroke-opacity:1;stroke-dasharray:none"
       d="m 19.182293,82.293051 c -0.95206,-0.549671 -2.161037,-0.225727 -2.710707,0.726333 L 12.502835,89.893459 5.6287585,85.92471 C 4.6767003,85.375038 3.4677237,85.698982 2.9180523,86.65104 2.3683805,87.6031 2.6923244,88.812076 3.6443832,89.361747 l 6.8740768,3.968751 -3.968749,6.874072 c -0.5496725,0.95207 -0.225727,2.16104 0.7263309,2.71071 0.9520587,0.54967 2.1610362,0.22573 2.7107055,-0.72633 l 3.9687516,-6.874077 6.874076,3.968749 c 0.952059,0.549672 2.161035,0.225728 2.710707,-0.72633 0.549672,-0.95206 0.225727,-2.161036 -0.726333,-2.710707 l -6.874075,-3.968751 3.968749,-6.874076 c 0.549672,-0.952058 0.225728,-2.161035 -0.72633,-2.710707 z" />
    <path
       id="rect1-2-7-4-6-7"
       style="fill:#ffff59;stroke-width:3.96875;stroke-linecap:round;stroke-linejoin:round;stroke-dashoffset:7.70457;paint-order:stroke fill markers;stroke:#000000;stroke-opacity:1;stroke-dasharray:none"
       d="m 47.340691,83.48345 c -0.842147,-0.706645 -2.089009,-0.597558 -2.795652,0.244588 l -5.102127,6.080477 -6.080477,-5.102126 c -0.842145,-0.706644 -2.089007,-0.597557 -2.795652,0.244587 -0.706644,0.842146 -0.597558,2.089008 0.244588,2.795651 l 6.080477,5.102127 -5.102124,6.080473 c -0.706645,0.842147 -0.59756,2.089013 0.244585,2.795653 0.842147,0.70664 2.089008,0.59756 2.795651,-0.24458 l 5.102127,-6.080483 6.080478,5.102123 c 0.842146,0.70665 2.089007,0.59756 2.795651,-0.24458 0.706644,-0.84215 0.597558,-2.089011 -0.244589,-2.795655 l -6.080476,-5.102127 5.102126,-6.080477 c 0.706645,-0.842146 0.597559,-2.089008 -0.244586,-2.795651 z" />
    <path
       id="rect1-2-7-6-7-8-2"
       style="fill:#ffff59;stroke-width:3.96875;stroke-linecap:round;stroke-linejoin:round;stroke-dashoffset:7.70457;paint-order:stroke fill markers;stroke:#000000;stroke-opacity:1;stroke-dasharray:none"
       d="m 75.266551,84.950977 c -0.706646,-0.842146 -1.953508,-0.951232 -2.795652,-0.244588 l -6.080478,5.102126 -5.102126,-6.080477 c -0.706644,-0.842144 -1.953506,-0.951231 -2.795652,-0.244589 -0.842146,0.706645 -0.951232,1.953507 -0.244588,2.795652 l 5.102127,6.080478 -6.080477,5.102126 c -0.842145,0.706643 -0.951232,1.953507 -0.244589,2.795645 0.706644,0.84215 1.953507,0.95124 2.795651,0.2446 l 6.080478,-5.102133 5.102123,6.080473 c 0.706645,0.84215 1.95351,0.95124 2.795654,0.2446 0.842144,-0.70665 0.951234,-1.953511 0.244589,-2.795657 l -5.102126,-6.080479 6.080476,-5.102126 c 0.842147,-0.706645 0.951233,-1.953506 0.24459,-2.795651 z" />
    <path
       id="rect1-2-7-6-6-8-8-7"
       style="fill:#ffff59;stroke-width:3.96875;stroke-linecap:round;stroke-linejoin:round;stroke-dashoffset:7.70457;paint-order:stroke fill markers;stroke:#000000;stroke-opacity:1;stroke-dasharray:none"
       d="m 102.91529,86.651044 c -0.54968,-0.95206 -1.75866,-1.276007 -2.71071,-0.726333 l -6.874083,3.968748 -3.968752,-6.874078 c -0.549667,-0.952056 -1.758642,-1.275999 -2.710706,-0.726331 -0.952055,0.549673 -1.275997,1.758652 -0.72633,2.710708 l 3.968752,6.874077 -6.874079,3.968748 c -0.952054,0.549672 -1.275996,1.758651 -0.72633,2.710712 0.549667,0.952052 1.758651,1.276001 2.710706,0.726323 l 6.874079,-3.968744 3.968745,6.874066 c 0.549664,0.95207 1.758651,1.27602 2.710704,0.72634 0.952062,-0.54967 1.276011,-1.75865 0.726343,-2.7107 l -3.968756,-6.874082 6.874077,-3.968747 c 0.95206,-0.549674 1.27601,-1.758652 0.72634,-2.710707 z" />
    <path
       id="rect1-2-7-6-6-9-4-4-2"
       style="fill:#ffff59;stroke-width:3.96875;stroke-linecap:round;stroke-linejoin:round;stroke-dashoffset:7.70457;paint-order:stroke fill markers;stroke:#000000;stroke-opacity:1;stroke-dasharray:none"
       d="m 130.25072,88.531992 c -0.376,-1.033043 -1.51036,-1.562006 -2.5434,-1.186007 l -7.45882,2.714783 -2.71478,-7.458811 c -0.376,-1.033042 -1.51035,-1.561999 -2.54339,-1.186005 -1.03305,0.375998 -1.56201,1.510356 -1.18602,2.543398 l 2.71479,7.45881 -7.45881,2.714784 c -1.03304,0.376 -1.56201,1.510356 -1.18601,2.543397 0.376,1.033044 1.51036,1.562007 2.5434,1.186008 l 7.45881,-2.714783 2.71478,7.458804 c 0.376,1.03304 1.51036,1.56201 2.5434,1.18601 1.03305,-0.376 1.56201,-1.51036 1.18602,-2.54339 l -2.71479,-7.458816 7.45881,-2.714785 c 1.03304,-0.375999 1.56201,-1.510356 1.18601,-2.543397 z" />
    <path
       id="rect1-2-7-6-6-9-3-5-3-2"
       style="fill:#ffff59;stroke-width:3.96875;stroke-linecap:round;stroke-linejoin:round;stroke-dashoffset:7.70457;paint-order:stroke fill markers;stroke:#000000;stroke-opacity:1;stroke-dasharray:none"
       d="m 157.2462,90.536672 c -0.1909,-1.082641 -1.21617,-1.800546 -2.29881,-1.609646 l -7.81692,1.378329 -1.37833,-7.816912 c -0.1909,-1.082639 -1.21617,-1.800538 -2.2988,-1.609642 -1.08265,0.190899 -1.80055,1.216171 -1.60966,2.298808 l 1.37834,7.816912 -7.81691,1.378332 c -1.08264,0.190902 -1.80055,1.21617 -1.60965,2.298809 0.1909,1.082641 1.21617,1.800547 2.29881,1.609646 l 7.81692,-1.378329 1.37832,7.816901 c 0.1909,1.08264 1.21617,1.80055 2.29881,1.60965 1.08265,-0.1909 1.80055,-1.21616 1.60966,-2.2988 l -1.37834,-7.816917 7.81691,-1.378333 c 1.08264,-0.190901 1.80055,-1.21617 1.60965,-2.298808 z" />
    <path
       id="rect1-2-7-6-6-9-3-7-0-1-6"
       style="fill:#ffff59;stroke-width:3.96875;stroke-linecap:round;stroke-linejoin:round;stroke-dashoffset:7.70457;paint-order:stroke fill markers;stroke:#000000;stroke-opacity:1;stroke-dasharray:none"
       d="m 183.88541,92.60417 c 0,-1.099342 -0.88503,-1.984377 -1.98437,-1.984375 l -7.93751,-5e-6 0,-7.9375 c 0,-1.099341 -0.88503,-1.984369 -1.98436,-1.984371 -1.09935,0 -1.98438,0.885032 -1.98439,1.98437 l 1e-5,7.937502 -7.9375,0 c -1.09934,3e-6 -1.98438,0.885031 -1.98438,1.984371 0,1.099344 0.88503,1.984379 1.98437,1.984377 l 7.93751,5e-6 -1e-5,7.937486 c 0,1.09934 0.88503,1.98438 1.98437,1.98438 1.09935,0 1.98438,-0.88503 1.98439,-1.98436 l -1e-5,-7.937507 7.9375,-10e-7 c 1.09934,-2e-6 1.98438,-0.885031 1.98438,-1.984372 z" />
    <path
       id="rect1-2-7-6-6-9-3-7-2-3-4-1"
       style="fill:#ffff59;stroke-width:3.96875;stroke-linecap:round;stroke-linejoin:round;stroke-dashoffset:7.70457;paint-order:stroke fill markers;stroke:#000000;stroke-opacity:1;stroke-dasharray:none"
       d="m 210.16286,94.671669 c 0.1909,-1.082641 -0.527,-2.107914 -1.60964,-2.298811 l -7.81692,-1.378339 1.37833,-7.816911 c 0.1909,-1.082641 -0.527,-2.107906 -1.60963,-2.298804 -1.08265,-0.190902 -2.10792,0.527003 -2.29883,1.609637 l -1.37832,7.816915 -7.81691,-1.378333 c -1.08264,-0.190895 -2.10792,0.527002 -2.29882,1.60964 -0.1909,1.082643 0.527,2.107916 1.60964,2.298813 l 7.81692,1.378339 -1.37834,7.816895 c -0.1909,1.08265 0.527,2.10792 1.60964,2.29882 1.08265,0.1909 2.10792,-0.527 2.29883,-1.60963 l 1.37832,-7.816922 7.81691,1.378331 c 1.08264,0.190897 2.10792,-0.527001 2.29882,-1.60964 z" />
    <path
       id="rect1-2-7-6-6-9-3-7-2-3-6-9-0"
       style="fill:#ffff59;stroke-width:3.96875;stroke-linecap:round;stroke-linejoin:round;stroke-dashoffset:7.70457;paint-order:stroke fill markers;stroke:#000000;stroke-opacity:1;stroke-dasharray:none"
       d="m 236.08404,96.676348 c 0.376,-1.033044 -0.15296,-2.167403 -1.186,-2.543398 l -7.45882,-2.714793 2.71478,-7.45881 c 0.376,-1.033044 -0.15296,-2.167394 -1.18599,-2.543389 -1.03305,-0.376002 -2.16741,0.15296 -2.54342,1.185995 l -2.71477,7.458816 -7.45881,-2.714785 c -1.03304,-0.375993 -2.16741,0.152959 -2.54341,1.186 -0.376,1.033046 0.15296,2.167405 1.186,2.5434 l 7.45882,2.714793 -2.71479,7.458793 c -0.376,1.03305 0.15296,2.16741 1.186,2.54341 1.03305,0.376 2.16741,-0.15296 2.54342,-1.186 l 2.71477,-7.458815 7.45881,2.714784 c 1.03304,0.375994 2.16741,-0.152959 2.54341,-1.186001 z" />
    <path
       id="rect1-2-9-8-9"
       style="fill:#ffff59;stroke-width:3.96875;stroke-linecap:round;stroke-linejoin:round;stroke-dashoffset:7.70457;paint-order:stroke fill markers;stroke:#000000;stroke-opacity:1;stroke-dasharray:none"
       d="m 20.882359,109.94178 c -0.84215,-0.70663 -2.089012,-0.59755 -2.795653,0.24459 l -5.102128,6.08048 -6.0804791,-5.10212 c -0.8421431,-0.70665 -2.0890061,-0.59756 -2.7956479,0.24458 -0.706647,0.84215 -0.5975587,2.08901 0.2445864,2.79565 l 6.0804756,5.10214 -5.1021217,6.08046 c -0.706647,0.84215 -0.5975584,2.08901 0.2445864,2.79565 0.8421457,0.70664 2.0890076,0.59756 2.7956497,-0.24458 l 5.1021266,-6.08048 6.080479,5.10212 c 0.842144,0.70665 2.089007,0.59756 2.795649,-0.24458 0.706647,-0.84215 0.597558,-2.08901 -0.244588,-2.79565 l -6.080474,-5.10214 5.102124,-6.08047 c 0.706644,-0.84214 0.597559,-2.08901 -0.244585,-2.79565 z" />
    <path
       id="rect1-2-7-4-6-4"
       style="fill:#ffff59;stroke-width:3.96875;stroke-linecap:round;stroke-linejoin:round;stroke-dashoffset:7.70457;paint-order:stroke fill markers;stroke:#000000;stroke-opacity:1;stroke-dasharray:none"
       d="m 48.808218,111.40931 c -0.706646,-0.84214 -1.95351,-0.95123 -2.795654,-0.24459 l -6.080477,5.10213 -5.102125,-6.08048 c -0.706645,-0.84214 -1.953508,-0.95123 -2.795652,-0.24459 -0.842145,0.70664 -0.951234,1.95351 -0.244588,2.79565 l 5.102125,6.08048 -6.080474,5.10212 c -0.842145,0.70664 -0.951234,1.95351 -0.24459,2.79565 0.706646,0.84215 1.953507,0.95124 2.79565,0.2446 l 6.080477,-5.10213 5.102126,6.08048 c 0.706646,0.84214 1.953508,0.95123 2.795652,0.24459 0.842144,-0.70664 0.951233,-1.95351 0.244587,-2.79565 l -5.102125,-6.08048 6.080478,-5.10213 c 0.842145,-0.70664 0.95123,-1.9535 0.24459,-2.79565 z" />
    <path
       id="rect1-2-7-6-7-8-9"
       style="fill:#ffff59;stroke-width:3.96875;stroke-linecap:round;stroke-linejoin:round;stroke-dashoffset:7.70457;paint-order:stroke fill markers;stroke:#000000;stroke-opacity:1;stroke-dasharray:none"
       d="m 76.456949,113.10938 c -0.549674,-0.95206 -1.758651,-1.27601 -2.710707,-0.72634 l -6.874078,3.96875 -3.968748,-6.87407 c -0.549673,-0.95206 -1.75865,-1.27601 -2.710708,-0.72634 -0.952061,0.54968 -1.276005,1.75865 -0.726331,2.71071 l 3.968749,6.87408 -6.874073,3.96874 c -0.952061,0.54968 -1.276005,1.75865 -0.726334,2.71071 0.54967,0.95207 1.758648,1.27601 2.710705,0.72634 l 6.874076,-3.96875 3.96875,6.87406 c 0.549671,0.95207 1.758651,1.27602 2.710706,0.72635 0.95206,-0.54968 1.276007,-1.75865 0.726333,-2.71071 l -3.968749,-6.87408 6.874077,-3.96875 c 0.952057,-0.54967 1.276002,-1.75864 0.726332,-2.7107 z" />
    <path
       id="rect1-2-7-6-6-8-8-0"
       style="fill:#ffff59;stroke-width:3.96875;stroke-linecap:round;stroke-linejoin:round;stroke-dashoffset:7.70457;paint-order:stroke fill markers;stroke:#000000;stroke-opacity:1;stroke-dasharray:none"
       d="m 103.79239,114.99033 c -0.37601,-1.03305 -1.51037,-1.56201 -2.5434,-1.18602 l -7.458818,2.71479 -2.714786,-7.45882 c -0.375996,-1.03303 -1.510349,-1.562 -2.543399,-1.186 -1.033043,0.376 -1.561998,1.51036 -1.186004,2.5434 l 2.714786,7.45881 -7.458814,2.71479 c -1.03304,0.376 -1.561997,1.51036 -1.186003,2.54339 0.375993,1.03305 1.510357,1.56201 2.543399,1.18601 l 7.45881,-2.71478 2.714783,7.45879 c 0.375989,1.03306 1.510356,1.56203 2.543395,1.18602 1.033048,-0.376 1.562009,-1.51035 1.186015,-2.54339 l -2.71479,-7.45882 7.458816,-2.71478 c 1.03304,-0.376 1.56201,-1.51036 1.18601,-2.54339 z" />
    <path
       id="rect1-2-7-6-6-9-4-4-9"
       style="fill:#ffff59;stroke-width:3.96875;stroke-linecap:round;stroke-linejoin:round;stroke-dashoffset:7.70457;paint-order:stroke fill markers;stroke:#000000;stroke-opacity:1;stroke-dasharray:none"
       d="m 130.78787,116.99501 c -0.1909,-1.08265 -1.21617,-1.80055 -2.29881,-1.60965 l -7.81692,1.37833 -1.37833,-7.81691 c -0.1909,-1.08264 -1.21617,-1.80054 -2.2988,-1.60965 -1.08265,0.19091 -1.80055,1.21618 -1.60966,2.29881 l 1.37834,7.81691 -7.81691,1.37834 c -1.08264,0.1909 -1.80056,1.21617 -1.60965,2.2988 0.1909,1.08265 1.21617,1.80055 2.29881,1.60966 l 7.81691,-1.37834 1.37833,7.8169 c 0.1909,1.08264 1.21617,1.80055 2.29881,1.60965 1.08265,-0.1909 1.80055,-1.21617 1.60966,-2.2988 l -1.37834,-7.81691 7.81691,-1.37834 c 1.08264,-0.1909 1.80055,-1.21617 1.60965,-2.2988 z" />
    <path
       id="rect1-2-7-6-6-9-3-5-3-1"
       style="fill:#ffff59;stroke-width:3.96875;stroke-linecap:round;stroke-linejoin:round;stroke-dashoffset:7.70457;paint-order:stroke fill markers;stroke:#000000;stroke-opacity:1;stroke-dasharray:none"
       d="m 157.42708,119.06251 c 0,-1.09935 -0.88503,-1.98438 -1.98437,-1.98438 l -7.93751,0 0,-7.9375 c 0,-1.09934 -0.88502,-1.98437 -1.98436,-1.98437 -1.09935,-1e-5 -1.98438,0.88502 -1.98439,1.98436 l 1e-5,7.9375 -7.9375,1e-5 c -1.09934,0 -1.98438,0.88502 -1.98438,1.98436 0,1.09935 0.88503,1.98438 1.98437,1.98438 l 7.93751,0 -1e-5,7.93749 c 0,1.09934 0.88503,1.98438 1.98437,1.98438 1.09935,0 1.98438,-0.88502 1.98439,-1.98436 l -1e-5,-7.9375 7.9375,-1e-5 c 1.09934,0 1.98438,-0.88502 1.98438,-1.98436 z" />
    <path
       id="rect1-2-7-6-6-9-3-7-0-1-7"
       style="fill:#ffff59;stroke-width:3.96875;stroke-linecap:round;stroke-linejoin:round;stroke-dashoffset:7.70457;paint-order:stroke fill markers;stroke:#000000;stroke-opacity:1;stroke-dasharray:none"
       d="m 183.70453,121.13 c 0.19089,-1.08264 -0.52701,-2.10791 -1.60964,-2.29881 l -7.81693,-1.37833 1.37834,-7.81691 c 0.1909,-1.08264 -0.52701,-2.10791 -1.60963,-2.29882 -1.08265,-0.1909 -2.10792,0.527 -2.29883,1.60964 l -1.37832,7.81691 -7.81691,-1.37832 c -1.08265,-0.1909 -2.10792,0.527 -2.29882,1.60963 -0.1909,1.08265 0.527,2.10792 1.60964,2.29882 l 7.81692,1.37833 -1.37834,7.8169 c -0.19089,1.08264 0.527,2.10792 1.60964,2.29882 1.08265,0.1909 2.10792,-0.527 2.29883,-1.60963 l 1.37832,-7.81692 7.81691,1.37833 c 1.08264,0.1909 2.10792,-0.527 2.29882,-1.60964 z" />
    <path
       id="rect1-2-7-6-6-9-3-7-2-3-4-7"
       style="fill:#ffff59;stroke-width:3.96875;stroke-linecap:round;stroke-linejoin:round;stroke-dashoffset:7.70457;paint-order:stroke fill markers;stroke:#000000;stroke-opacity:1;stroke-dasharray:none"
       d="m 209.62571,123.13468 c 0.37599,-1.03305 -0.15297,-2.1674 -1.186,-2.5434 l -7.45882,-2.71479 2.71478,-7.45881 c 0.376,-1.03304 -0.15296,-2.1674 -1.18599,-2.5434 -1.03305,-0.376 -2.16741,0.15297 -2.54342,1.186 l -2.71477,7.45881 -7.45881,-2.71478 c -1.03304,-0.37599 -2.16741,0.15297 -2.54341,1.18601 -0.376,1.03304 0.15296,2.1674 1.186,2.5434 l 7.45882,2.71479 -2.71479,7.45879 c -0.376,1.03305 0.15296,2.16741 1.186,2.54341 1.03305,0.376 2.16741,-0.15296 2.54342,-1.18599 l 2.71477,-7.45882 7.45881,2.71479 c 1.03304,0.37599 2.16741,-0.15297 2.54341,-1.18601 z" />
    <path
       id="rect1-2-7-6-6-9-3-7-2-3-6-9-1"
       style="fill:#ffff59;stroke-width:3.96875;stroke-linecap:round;stroke-linejoin:round;stroke-dashoffset:7.70457;paint-order:stroke fill markers;stroke:#000000;stroke-opacity:1;stroke-dasharray:none"
       d="m 235.20694,125.01563 c 0.54967,-0.95206 0.22573,-2.16104 -0.72633,-2.71071 l -6.87408,-3.96876 3.96874,-6.87407 c 0.54968,-0.95206 0.22573,-2.16103 -0.72631,-2.7107 -0.95208,-0.54967 -2.16105,-0.22573 -2.71073,0.72631 l -3.96874,6.87409 -6.87407,-3.96874 c -0.95206,-0.54968 -2.16105,-0.22573 -2.71072,0.72632 -0.54967,0.95206 -0.22573,2.16104 0.72633,2.71071 l 6.87408,3.96876 -3.96875,6.87405 c -0.54968,0.95206 -0.22573,2.16104 0.72632,2.71072 0.95208,0.54967 2.16105,0.22573 2.71073,-0.72632 l 3.96874,-6.87408 6.87407,3.96874 c 0.95206,0.54968 2.16105,0.22573 2.71072,-0.72632 z" />
    <path
       id="rect1-2-9-8-7"
       style="fill:#ffff59;stroke-width:3.96875;stroke-linecap:round;stroke-linejoin:round;stroke-dashoffset:7.70457;paint-order:stroke fill markers;stroke:#000000;stroke-opacity:1;stroke-dasharray:none"
       d="m 22.349886,137.86764 c -0.706651,-0.84214 -1.953512,-0.95123 -2.795653,-0.24459 l -6.08048,5.10213 -5.1021289,-6.08047 c -0.7066406,-0.84215 -1.9535042,-0.95124 -2.7956466,-0.2446 -0.8421493,0.70665 -0.9512332,1.95351 -0.2445889,2.79565 l 5.1021224,6.08049 -6.08047,5.10211 c -0.8421493,0.70665 -0.951233,1.95351 -0.244589,2.79565 0.7066449,0.84215 1.9535057,0.95124 2.7956484,0.2446 l 6.0804776,-5.10213 5.10213,6.08047 c 0.706641,0.84215 1.953505,0.95124 2.795647,0.2446 0.842149,-0.70665 0.951233,-1.95351 0.244588,-2.79565 l -5.102121,-6.08049 6.080474,-5.10212 c 0.842144,-0.70664 0.951233,-1.95351 0.24459,-2.79565 z" />
    <path
       id="rect1-2-7-4-6-76"
       style="fill:#ffff59;stroke-width:3.96875;stroke-linecap:round;stroke-linejoin:round;stroke-dashoffset:7.70457;paint-order:stroke fill markers;stroke:#000000;stroke-opacity:1;stroke-dasharray:none"
       d="m 49.998616,139.56771 c -0.549674,-0.95206 -1.758652,-1.27601 -2.710709,-0.72634 l -6.874076,3.96875 -3.968748,-6.87407 c -0.549674,-0.95206 -1.758651,-1.27601 -2.710707,-0.72634 -0.952058,0.54967 -1.276007,1.75865 -0.726332,2.71071 l 3.968748,6.87408 -6.874072,3.96874 c -0.952058,0.54967 -1.276006,1.75865 -0.726334,2.71071 0.549673,0.95206 1.758648,1.27601 2.710704,0.72634 l 6.874076,-3.96875 3.968749,6.87407 c 0.549675,0.95206 1.758651,1.27601 2.710707,0.72634 0.952057,-0.54967 1.276006,-1.75865 0.726331,-2.71071 l -3.968748,-6.87408 6.874078,-3.96875 c 0.952057,-0.54967 1.276,-1.75864 0.726333,-2.7107 z" />
    <path
       id="rect1-2-7-6-7-8-7"
       style="fill:#ffff59;stroke-width:3.96875;stroke-linecap:round;stroke-linejoin:round;stroke-dashoffset:7.70457;paint-order:stroke fill markers;stroke:#000000;stroke-opacity:1;stroke-dasharray:none"
       d="m 77.334048,141.44866 c -0.375999,-1.03305 -1.510356,-1.56201 -2.543397,-1.18602 l -7.458812,2.71479 -2.714784,-7.45881 c -0.375999,-1.03304 -1.510355,-1.56201 -2.543398,-1.18601 -1.033048,0.37601 -1.562006,1.51036 -1.186007,2.5434 l 2.714784,7.45882 -7.458805,2.71477 c -1.033048,0.37601 -1.562006,1.51036 -1.186009,2.5434 0.375994,1.03306 1.510353,1.56201 2.543395,1.18602 l 7.45881,-2.71479 2.714788,7.4588 c 0.375995,1.03305 1.510354,1.56202 2.543394,1.18602 1.033047,-0.37601 1.562008,-1.51036 1.186009,-2.5434 l -2.714784,-7.45882 7.458811,-2.71478 c 1.033042,-0.376 1.562001,-1.51035 1.186005,-2.54339 z" />
    <path
       id="rect1-2-7-6-6-8-8-3"
       style="fill:#ffff59;stroke-width:3.96875;stroke-linecap:round;stroke-linejoin:round;stroke-dashoffset:7.70457;paint-order:stroke fill markers;stroke:#000000;stroke-opacity:1;stroke-dasharray:none"
       d="m 104.32954,143.45334 c -0.19091,-1.08265 -1.21618,-1.80055 -2.29881,-1.60966 l -7.81692,1.37834 -1.378331,-7.81692 c -0.1909,-1.08263 -1.216165,-1.80054 -2.298813,-1.60964 -1.08264,0.1909 -1.800539,1.21617 -1.609643,2.29881 l 1.378334,7.81691 -7.816916,1.37834 c -1.082638,0.1909 -1.800538,1.21617 -1.60964,2.2988 0.190893,1.08265 1.216171,1.80055 2.29881,1.60965 l 7.816911,-1.37833 1.378334,7.81689 c 0.190888,1.08266 1.216167,1.80057 2.298805,1.60966 1.082645,-0.1909 1.800548,-1.21616 1.609652,-2.2988 l -1.378336,-7.81692 7.816913,-1.37833 c 1.08264,-0.1909 1.80055,-1.21617 1.60965,-2.2988 z" />
    <path
       id="rect1-2-7-6-6-9-4-4-6"
       style="fill:#ffff59;stroke-width:3.96875;stroke-linecap:round;stroke-linejoin:round;stroke-dashoffset:7.70457;paint-order:stroke fill markers;stroke:#000000;stroke-opacity:1;stroke-dasharray:none"
       d="m 130.96875,145.52084 c 0,-1.09935 -0.88503,-1.98438 -1.98437,-1.98438 l -7.93751,0 0,-7.9375 c 0,-1.09934 -0.88503,-1.98437 -1.98436,-1.98438 -1.09935,1e-5 -1.98438,0.88504 -1.98439,1.98437 l 1e-5,7.9375 -7.9375,1e-5 c -1.09935,0 -1.98439,0.88503 -1.98438,1.98436 0,1.09935 0.88503,1.98438 1.98437,1.98439 l 7.9375,-1e-5 0,7.93749 c 0,1.09934 0.88503,1.98438 1.98437,1.98438 1.09935,0 1.98438,-0.88503 1.98439,-1.98436 l -1e-5,-7.9375 7.9375,-1e-5 c 1.09934,0 1.98438,-0.88503 1.98438,-1.98436 z" />
    <path
       id="rect1-2-7-6-6-9-3-5-3-5"
       style="fill:#ffff59;stroke-width:3.96875;stroke-linecap:round;stroke-linejoin:round;stroke-dashoffset:7.70457;paint-order:stroke fill markers;stroke:#000000;stroke-opacity:1;stroke-dasharray:none"
       d="m 157.2462,147.58834 c 0.1909,-1.08265 -0.527,-2.10792 -1.60964,-2.29882 l -7.81692,-1.37833 1.37833,-7.81691 c 0.1909,-1.08264 -0.52699,-2.10791 -1.60963,-2.29881 -1.08265,-0.19091 -2.10792,0.52699 -2.29883,1.60963 l -1.37832,7.81691 -7.81691,-1.37832 c -1.08264,-0.1909 -2.10792,0.52699 -2.29882,1.60963 -0.1909,1.08265 0.527,2.10792 1.60964,2.29882 l 7.81692,1.37833 -1.37834,7.8169 c -0.19089,1.08264 0.527,2.10792 1.60964,2.29882 1.08265,0.1909 2.10792,-0.52699 2.29883,-1.60963 l 1.37832,-7.81691 7.81691,1.37832 c 1.08264,0.1909 2.10792,-0.52699 2.29882,-1.60963 z" />
    <path
       id="rect1-2-7-6-6-9-3-7-0-1-63"
       style="fill:#ffff59;stroke-width:3.96875;stroke-linecap:round;stroke-linejoin:round;stroke-dashoffset:7.70457;paint-order:stroke fill markers;stroke:#000000;stroke-opacity:1;stroke-dasharray:none"
       d="m 183.16738,149.59301 c 0.37599,-1.03305 -0.15297,-2.1674 -1.186,-2.5434 l -7.45883,-2.71478 2.71479,-7.45881 c 0.376,-1.03304 -0.15297,-2.1674 -1.18599,-2.54341 -1.03305,-0.376 -2.16741,0.15296 -2.54342,1.186 l -2.71477,7.45881 -7.45881,-2.71477 c -1.03305,-0.376 -2.16741,0.15296 -2.54341,1.18599 -0.376,1.03305 0.15296,2.16741 1.186,2.54341 l 7.45882,2.71478 -2.71479,7.4588 c -0.37599,1.03304 0.15296,2.16741 1.186,2.54341 1.03305,0.376 2.16741,-0.15296 2.54342,-1.18599 l 2.71477,-7.45882 7.45881,2.71478 c 1.03304,0.376 2.16741,-0.15296 2.54341,-1.186 z" />
    <path
       id="rect1-2-7-6-6-9-3-7-2-3-4-9"
       style="fill:#ffff59;stroke-width:3.96875;stroke-linecap:round;stroke-linejoin:round;stroke-dashoffset:7.70457;paint-order:stroke fill markers;stroke:#000000;stroke-opacity:1;stroke-dasharray:none"
       d="m 208.74861,151.47396 c 0.54966,-0.95207 0.22572,-2.16104 -0.72633,-2.71071 l -6.87408,-3.96875 3.96874,-6.87408 c 0.54968,-0.95206 0.22573,-2.16104 -0.72631,-2.71071 -0.95207,-0.54967 -2.16105,-0.22572 -2.71073,0.72632 l -3.96873,6.87408 -6.87408,-3.96874 c -0.95206,-0.54966 -2.16105,-0.22572 -2.71072,0.72633 -0.54967,0.95206 -0.22573,2.16104 0.72633,2.71071 l 6.87408,3.96876 -3.96875,6.87405 c -0.54968,0.95207 -0.22573,2.16104 0.72632,2.71072 0.95207,0.54967 2.16105,0.22573 2.71073,-0.72631 l 3.96873,-6.87409 6.87408,3.96875 c 0.95206,0.54967 2.16105,0.22572 2.71072,-0.72633 z" />
    <path
       id="rect1-2-7-6-6-9-3-7-2-3-6-9-4"
       style="fill:#ffff59;stroke-width:3.96875;stroke-linecap:round;stroke-linejoin:round;stroke-dashoffset:7.70457;paint-order:stroke fill markers;stroke:#000000;stroke-opacity:1;stroke-dasharray:none"
       d="m 234.01654,153.17403 c 0.70664,-0.84215 0.59756,-2.08902 -0.24458,-2.79566 l -6.08048,-5.10214 5.10211,-6.08047 c 0.70665,-0.84214 0.59756,-2.089 -0.24457,-2.79564 -0.84216,-0.70665 -2.08902,-0.59756 -2.79567,0.24456 l -5.10212,6.0805 -6.08047,-5.10212 c -0.84214,-0.70665 -2.08902,-0.59756 -2.79566,0.24457 -0.70664,0.84215 -0.59756,2.08902 0.24458,2.79566 l 6.08048,5.10214 -5.10212,6.08045 c -0.70665,0.84214 -0.59756,2.08901 0.24458,2.79566 0.84216,0.70665 2.08902,0.59756 2.79567,-0.24457 l 5.10212,-6.08049 6.08047,5.10212 c 0.84214,0.70665 2.08902,0.59756 2.79566,-0.24457 z" />
    <path
       id="rect1-2-9-8-93"
       style="fill:#ffff59;stroke-width:3.96875;stroke-linecap:round;stroke-linejoin:round;stroke-dashoffset:7.70457;paint-order:stroke fill markers;stroke:#000000;stroke-opacity:1;stroke-dasharray:none"
       d="m 23.540284,166.02604 c -0.549679,-0.95206 -1.758654,-1.27601 -2.710708,-0.72634 l -6.874079,3.96875 -3.9687538,-6.87407 c -0.5496674,-0.95206 -1.758645,-1.27601 -2.7107001,-0.72634 -0.9520637,0.54968 -1.2760053,1.75865 -0.7263326,2.71071 l 3.9687435,6.87409 -6.8740659,3.96873 c -0.9520637,0.54968 -1.2760051,1.75865 -0.7263327,2.71071 0.5496716,0.95206 1.7586465,1.27601 2.7107019,0.72634 l 6.8740767,-3.96875 3.968755,6.87406 c 0.549668,0.95207 1.758646,1.27602 2.7107,0.72635 0.952064,-0.54968 1.276006,-1.75865 0.726332,-2.71071 l -3.968742,-6.87409 6.874072,-3.96874 c 0.952056,-0.54967 1.276005,-1.75865 0.726333,-2.7107 z" />
    <path
       id="rect1-2-7-4-6-9"
       style="fill:#ffff59;stroke-width:3.96875;stroke-linecap:round;stroke-linejoin:round;stroke-dashoffset:7.70457;paint-order:stroke fill markers;stroke:#000000;stroke-opacity:1;stroke-dasharray:none"
       d="m 50.875715,167.90699 c -0.375999,-1.03305 -1.510357,-1.56201 -2.543399,-1.18602 l -7.45881,2.71479 -2.714784,-7.45881 c -0.376,-1.03304 -1.510356,-1.56201 -2.543397,-1.18601 -1.033044,0.376 -1.562008,1.51036 -1.186008,2.5434 l 2.714783,7.45882 -7.458804,2.71477 c -1.033044,0.376 -1.562007,1.51036 -1.186009,2.5434 0.375998,1.03305 1.510353,1.56201 2.543394,1.18602 l 7.45881,-2.71479 2.714785,7.45881 c 0.376001,1.03304 1.510356,1.56201 2.543398,1.18601 1.033042,-0.376 1.562006,-1.51036 1.186006,-2.5434 l -2.714783,-7.45882 7.458812,-2.71478 c 1.033042,-0.376 1.561999,-1.51035 1.186006,-2.54339 z" />
    <path
       id="rect1-2-7-6-7-8-0"
       style="fill:#ffff59;stroke-width:3.96875;stroke-linecap:round;stroke-linejoin:round;stroke-dashoffset:7.70457;paint-order:stroke fill markers;stroke:#000000;stroke-opacity:1;stroke-dasharray:none"
       d="m 77.871199,169.91167 c -0.1909,-1.08265 -1.21617,-1.80055 -2.298807,-1.60966 l -7.816914,1.37834 -1.378332,-7.81691 c -0.190901,-1.08264 -1.216169,-1.80055 -2.298809,-1.60965 -1.082648,0.19091 -1.800547,1.21617 -1.609646,2.29881 l 1.37833,7.81692 -7.816904,1.37832 c -1.082647,0.19091 -1.800547,1.21617 -1.609648,2.29881 0.190893,1.08266 1.216167,1.80055 2.298805,1.60966 l 7.816912,-1.37834 1.378338,7.8169 c 0.190895,1.08265 1.216166,1.80056 2.298804,1.60966 1.082646,-0.19091 1.800548,-1.21617 1.609647,-2.29881 l -1.37833,-7.81692 7.816912,-1.37833 c 1.082639,-0.1909 1.80054,-1.21616 1.609642,-2.2988 z" />
    <path
       id="rect1-2-7-6-6-8-8-8"
       style="fill:#ffff59;stroke-width:3.96875;stroke-linecap:round;stroke-linejoin:round;stroke-dashoffset:7.70457;paint-order:stroke fill markers;stroke:#000000;stroke-opacity:1;stroke-dasharray:none"
       d="m 104.51042,171.97917 c -1e-5,-1.09935 -0.88504,-1.98438 -1.98437,-1.98439 l -7.93751,0 2e-6,-7.9375 c -3e-6,-1.09933 -0.885028,-1.98437 -1.984377,-1.98437 -1.099342,0 -1.984371,0.88503 -1.984374,1.98437 l 2e-6,7.9375 -7.937505,1e-5 c -1.09934,0 -1.98437,0.88503 -1.984369,1.98436 -7e-6,1.09935 0.885033,1.98438 1.984373,1.98438 l 7.937499,0 6e-6,7.93748 c -1.4e-5,1.09936 0.885025,1.9844 1.984366,1.98439 1.099347,0 1.984378,-0.88502 1.98438,-1.98436 l -2e-6,-7.93751 7.937499,0 c 1.09934,0 1.98438,-0.88503 1.98438,-1.98436 z" />
    <path
       id="rect1-2-7-6-6-9-4-4-8"
       style="fill:#ffff59;stroke-width:3.96875;stroke-linecap:round;stroke-linejoin:round;stroke-dashoffset:7.70457;paint-order:stroke fill markers;stroke:#000000;stroke-opacity:1;stroke-dasharray:none"
       d="m 130.78786,174.04667 c 0.1909,-1.08265 -0.527,-2.10792 -1.60963,-2.29882 l -7.81693,-1.37833 1.37834,-7.81691 c 0.1909,-1.08264 -0.52701,-2.10791 -1.60963,-2.29882 -1.08265,-0.19089 -2.10792,0.52701 -2.29883,1.60964 l -1.37832,7.81691 -7.81691,-1.37832 c -1.08265,-0.1909 -2.10793,0.527 -2.29882,1.60963 -0.1909,1.08265 0.527,2.10792 1.60964,2.29883 l 7.81691,1.37832 -1.37833,7.8169 c -0.19089,1.08264 0.527,2.10792 1.60964,2.29882 1.08265,0.1909 2.10792,-0.527 2.29883,-1.60963 l 1.37832,-7.81692 7.81691,1.37833 c 1.08264,0.1909 2.10792,-0.527 2.29881,-1.60963 z" />
    <path
       id="rect1-2-7-6-6-9-3-5-3-50"
       style="fill:#ffff59;stroke-width:3.96875;stroke-linecap:round;stroke-linejoin:round;stroke-dashoffset:7.70457;paint-order:stroke fill markers;stroke:#000000;stroke-opacity:1;stroke-dasharray:none"
       d="m 156.70905,176.05135 c 0.376,-1.03305 -0.15296,-2.16741 -1.186,-2.54341 l -7.45882,-2.71478 2.71478,-7.45881 c 0.376,-1.03304 -0.15295,-2.1674 -1.18599,-2.5434 -1.03305,-0.37601 -2.16741,0.15295 -2.54342,1.18599 l -2.71477,7.45881 -7.45881,-2.71477 c -1.03304,-0.376 -2.16741,0.15295 -2.54341,1.18599 -0.376,1.03305 0.15296,2.16741 1.186,2.54341 l 7.45882,2.71478 -2.71479,7.4588 c -0.37599,1.03304 0.15296,2.16741 1.186,2.54341 1.03306,0.376 2.16741,-0.15295 2.54342,-1.18599 l 2.71477,-7.45881 7.45881,2.71477 c 1.03304,0.376 2.16741,-0.15295 2.54341,-1.18599 z" />
    <path
       id="rect1-2-7-6-6-9-3-7-0-1-9"
       style="fill:#ffff59;stroke-width:3.96875;stroke-linecap:round;stroke-linejoin:round;stroke-dashoffset:7.70457;paint-order:stroke fill markers;stroke:#000000;stroke-opacity:1;stroke-dasharray:none"
       d="m 182.29028,177.93229 c 0.54966,-0.95207 0.22572,-2.16104 -0.72633,-2.71071 l -6.87409,-3.96875 3.96875,-6.87407 c 0.54967,-0.95206 0.22572,-2.16104 -0.72631,-2.71072 -0.95207,-0.54967 -2.16105,-0.22573 -2.71073,0.72632 l -3.96873,6.87408 -6.87408,-3.96873 c -0.95207,-0.54968 -2.16105,-0.22573 -2.71072,0.72631 -0.54967,0.95207 -0.22573,2.16105 0.72633,2.71072 l 6.87408,3.96875 -3.96875,6.87406 c -0.54966,0.95206 -0.22573,2.16104 0.72632,2.71072 0.95207,0.54967 2.16105,0.22573 2.71073,-0.72631 l 3.96873,-6.87409 6.87408,3.96874 c 0.95206,0.54968 2.16105,0.22573 2.71072,-0.72632 z" />
    <path
       id="rect1-2-7-6-6-9-3-7-2-3-4-6"
       style="fill:#ffff59;stroke-width:3.96875;stroke-linecap:round;stroke-linejoin:round;stroke-dashoffset:7.70457;paint-order:stroke fill markers;stroke:#000000;stroke-opacity:1;stroke-dasharray:none"
       d="m 207.55821,179.63236 c 0.70663,-0.84216 0.59755,-2.08902 -0.24459,-2.79566 l -6.08048,-5.10213 5.10212,-6.08048 c 0.70665,-0.84214 0.59756,-2.08901 -0.24457,-2.79565 -0.84215,-0.70664 -2.08902,-0.59755 -2.79567,0.24457 l -5.1021,6.08049 -6.08049,-5.10212 c -0.84215,-0.70663 -2.08902,-0.59755 -2.79566,0.24458 -0.70664,0.84215 -0.59756,2.08902 0.24458,2.79566 l 6.08048,5.10214 -5.10212,6.08045 c -0.70665,0.84215 -0.59756,2.08901 0.24458,2.79566 0.84215,0.70664 2.08902,0.59756 2.79567,-0.24456 l 5.10211,-6.0805 6.08048,5.10213 c 0.84214,0.70664 2.08902,0.59755 2.79566,-0.24458 z" />
    <path
       id="rect1-2-7-6-6-9-3-7-2-3-6-9-3"
       style="fill:#ffff59;stroke-width:3.96875;stroke-linecap:round;stroke-linejoin:round;stroke-dashoffset:7.70457;paint-order:stroke fill markers;stroke:#000000;stroke-opacity:1;stroke-dasharray:none"
       d="m 232.54901,181.09989 c 0.84214,-0.70665 0.95124,-1.95352 0.2446,-2.79566 l -5.10213,-6.08049 6.08046,-5.10212 c 0.84215,-0.70664 0.95123,-1.9535 0.24461,-2.79564 -0.70666,-0.84216 -1.95352,-0.95124 -2.79567,-0.24462 l -6.08047,5.10215 -5.10212,-6.08047 c -0.70664,-0.84215 -1.95352,-0.95124 -2.79566,-0.24461 -0.84214,0.70665 -0.95124,1.95352 -0.2446,2.79566 l 5.10213,6.08049 -6.08047,5.1021 c -0.84215,0.70664 -0.95123,1.95351 -0.2446,2.79566 0.70666,0.84216 1.95352,0.95124 2.79567,0.24461 l 6.08047,-5.10214 5.10212,6.08047 c 0.70664,0.84215 1.95352,0.95124 2.79566,0.24461 z" />
    <path
       id="rect1-2-9-8-11"
       style="fill:#ffff59;stroke-width:3.96875;stroke-linecap:round;stroke-linejoin:round;stroke-dashoffset:7.70457;paint-order:stroke fill markers;stroke:#000000;stroke-opacity:1;stroke-dasharray:none"
       d="m 24.417383,194.36532 c -0.376004,-1.03305 -1.510359,-1.56201 -2.543398,-1.18602 l -7.458813,2.71479 -2.71479,-7.45881 c -0.375993,-1.03304 -1.51035,-1.56201 -2.5433904,-1.18601 -1.0330506,0.376 -1.5620063,1.51036 -1.1860078,2.5434 l 2.7147762,7.45882 -7.4587962,2.71477 c -1.0330506,0.37601 -1.562006,1.51036 -1.1860079,2.5434 0.3759974,1.03305 1.5103519,1.56201 2.5433926,1.18602 l 7.4588105,-2.71479 2.714792,7.4588 c 0.375993,1.03305 1.51035,1.56202 2.543389,1.18602 1.033051,-0.37601 1.562007,-1.51036 1.186008,-2.5434 l -2.714775,-7.45882 7.458804,-2.71478 c 1.033041,-0.376 1.562006,-1.51036 1.186006,-2.54339 z" />
    <path
       id="rect1-2-7-4-6-5"
       style="fill:#ffff59;stroke-width:3.96875;stroke-linecap:round;stroke-linejoin:round;stroke-dashoffset:7.70457;paint-order:stroke fill markers;stroke:#000000;stroke-opacity:1;stroke-dasharray:none"
       d="m 51.412866,196.37 c -0.1909,-1.08265 -1.216171,-1.80055 -2.298809,-1.60966 l -7.816912,1.37834 -1.378332,-7.81691 c -0.190902,-1.08264 -1.21617,-1.80055 -2.298808,-1.60965 -1.082642,0.1909 -1.800549,1.21617 -1.609647,2.29881 l 1.378329,7.81692 -7.816903,1.37832 c -1.082642,0.1909 -1.800548,1.21617 -1.609648,2.29881 0.190899,1.08265 1.216167,1.80055 2.298804,1.60966 l 7.816912,-1.37834 1.378333,7.81691 c 0.190903,1.08264 1.21617,1.80055 2.29881,1.60965 1.082639,-0.1909 1.800546,-1.21617 1.609644,-2.29881 l -1.378329,-7.81692 7.816913,-1.37833 c 1.082639,-0.1909 1.800538,-1.21617 1.609643,-2.2988 z" />
    <path
       id="rect1-2-7-6-7-8-98"
       style="fill:#ffff59;stroke-width:3.96875;stroke-linecap:round;stroke-linejoin:round;stroke-dashoffset:7.70457;paint-order:stroke fill markers;stroke:#000000;stroke-opacity:1;stroke-dasharray:none"
       d="m 78.05208,198.4375 c 10e-7,-1.09935 -0.885031,-1.98438 -1.984368,-1.98439 l -7.937504,1e-5 0,-7.9375 c -2e-6,-1.09934 -0.88503,-1.98438 -1.984372,-1.98438 -1.099351,1e-5 -1.984378,0.88503 -1.984376,1.98437 l -4e-6,7.93751 -7.93749,-1e-5 c -1.099351,1e-5 -1.984379,0.88503 -1.984378,1.98437 -9e-6,1.09936 0.885028,1.98438 1.984366,1.98439 l 7.937502,-1e-5 8e-6,7.93749 c -6e-6,1.09935 0.885025,1.98439 1.984365,1.98439 1.099349,-1e-5 1.984379,-0.88503 1.984377,-1.98437 l 4e-6,-7.93751 7.9375,0 c 1.099341,0 1.98437,-0.88502 1.98437,-1.98436 z" />
    <path
       id="rect1-2-7-6-6-8-8-4"
       style="fill:#ffff59;stroke-width:3.96875;stroke-linecap:round;stroke-linejoin:round;stroke-dashoffset:7.70457;paint-order:stroke fill markers;stroke:#000000;stroke-opacity:1;stroke-dasharray:none"
       d="m 104.32953,200.505 c 0.19089,-1.08265 -0.52701,-2.10792 -1.60963,-2.29883 l -7.816924,-1.37833 1.378334,-7.81691 c 0.190894,-1.08263 -0.527,-2.10791 -1.609647,-2.29881 -1.082641,-0.1909 -2.107908,0.527 -2.298809,1.60964 l -1.378331,7.81691 -7.816918,-1.37832 c -1.082639,-0.1909 -2.107907,0.527 -2.298802,1.60963 -0.190907,1.08265 0.527003,2.10792 1.609642,2.29882 l 7.81691,1.37833 -1.378323,7.81689 c -0.190916,1.08266 0.526992,2.10794 1.609633,2.29883 1.082646,0.1909 2.107913,-0.52699 2.298814,-1.60963 l 1.378332,-7.81692 7.816909,1.37833 c 1.08264,0.1909 2.10792,-0.527 2.29881,-1.60963 z" />
    <path
       id="rect1-2-7-6-6-9-4-4-81"
       style="fill:#ffff59;stroke-width:3.96875;stroke-linecap:round;stroke-linejoin:round;stroke-dashoffset:7.70457;paint-order:stroke fill markers;stroke:#000000;stroke-opacity:1;stroke-dasharray:none"
       d="m 130.25071,202.50968 c 0.376,-1.03305 -0.15296,-2.16741 -1.18599,-2.54341 l -7.45883,-2.71478 2.71479,-7.45881 c 0.376,-1.03304 -0.15297,-2.1674 -1.18599,-2.54341 -1.03306,-0.37599 -2.16741,0.15297 -2.54342,1.186 l -2.71477,7.45881 -7.45881,-2.71477 c -1.03305,-0.376 -2.16742,0.15296 -2.54341,1.18599 -0.376,1.03305 0.15296,2.16741 1.186,2.54342 l 7.45881,2.71477 -2.71478,7.4588 c -0.37599,1.03304 0.15296,2.16741 1.186,2.54341 1.03305,0.376 2.16741,-0.15296 2.54342,-1.18599 l 2.71477,-7.45882 7.45881,2.71478 c 1.03304,0.376 2.16741,-0.15296 2.5434,-1.18599 z" />
    <path
       id="rect1-2-7-6-6-9-3-5-3-0"
       style="fill:#ffff59;stroke-width:3.96875;stroke-linecap:round;stroke-linejoin:round;stroke-dashoffset:7.70457;paint-order:stroke fill markers;stroke:#000000;stroke-opacity:1;stroke-dasharray:none"
       d="m 155.83195,204.39063 c 0.54967,-0.95207 0.22573,-2.16105 -0.72633,-2.71072 l -6.87408,-3.96875 3.96874,-6.87407 c 0.54967,-0.95206 0.22574,-2.16103 -0.72631,-2.71071 -0.95207,-0.54968 -2.16105,-0.22574 -2.71073,0.72631 l -3.96873,6.87408 -6.87408,-3.96873 c -0.95206,-0.54968 -2.16104,-0.22574 -2.71072,0.72631 -0.54967,0.95207 -0.22573,2.16105 0.72633,2.71072 l 6.87408,3.96875 -3.96875,6.87406 c -0.54966,0.95206 -0.22573,2.16104 0.72632,2.71072 0.95208,0.54967 2.16104,0.22574 2.71073,-0.72631 l 3.96873,-6.87408 6.87408,3.96873 c 0.95206,0.54968 2.16104,0.22574 2.71072,-0.72631 z" />
    <path
       id="rect1-2-7-6-6-9-3-7-0-1-3"
       style="fill:#ffff59;stroke-width:3.96875;stroke-linecap:round;stroke-linejoin:round;stroke-dashoffset:7.70457;paint-order:stroke fill markers;stroke:#000000;stroke-opacity:1;stroke-dasharray:none"
       d="m 181.09988,206.09069 c 0.70663,-0.84216 0.59755,-2.08902 -0.24459,-2.79566 l -6.08049,-5.10213 5.10213,-6.08047 c 0.70664,-0.84214 0.59755,-2.08901 -0.24457,-2.79566 -0.84215,-0.70664 -2.08902,-0.59756 -2.79567,0.24457 l -5.1021,6.08049 -6.08049,-5.10211 c -0.84215,-0.70665 -2.08902,-0.59756 -2.79566,0.24456 -0.70664,0.84216 -0.59756,2.08903 0.24458,2.79567 l 6.08049,5.10213 -5.10213,6.08046 c -0.70663,0.84215 -0.59756,2.08901 0.24458,2.79566 0.84215,0.70664 2.08902,0.59756 2.79567,-0.24456 l 5.1021,-6.0805 6.08049,5.10212 c 0.84214,0.70665 2.08902,0.59756 2.79566,-0.24457 z" />
    <path
       id="rect1-2-7-6-6-9-3-7-2-3-4-0"
       style="fill:#ffff59;stroke-width:3.96875;stroke-linecap:round;stroke-linejoin:round;stroke-dashoffset:7.70457;paint-order:stroke fill markers;stroke:#000000;stroke-opacity:1;stroke-dasharray:none"
       d="m 206.09068,207.55822 c 0.84214,-0.70666 0.95123,-1.95352 0.24459,-2.79566 l -5.10213,-6.08048 6.08047,-5.10213 c 0.84215,-0.70664 0.95124,-1.95351 0.24461,-2.79565 -0.70665,-0.84214 -1.95352,-0.95123 -2.79567,-0.24461 l -6.08045,5.10214 -5.10214,-6.08047 c -0.70665,-0.84213 -1.95352,-0.95123 -2.79566,-0.2446 -0.84214,0.70665 -0.95124,1.95352 -0.2446,2.79566 l 5.10213,6.08049 -6.08047,5.1021 c -0.84215,0.70665 -0.95123,1.95351 -0.2446,2.79566 0.70665,0.84214 1.95352,0.95124 2.79567,0.24462 l 6.08046,-5.10215 5.10213,6.08048 c 0.70664,0.84214 1.95352,0.95123 2.79566,0.2446 z" />
    <path
       id="rect1-2-7-6-6-9-3-7-2-3-6-9-44"
       style="fill:#ffff59;stroke-width:3.96875;stroke-linecap:round;stroke-linejoin:round;stroke-dashoffset:7.70457;paint-order:stroke fill markers;stroke:#000000;stroke-opacity:1;stroke-dasharray:none"
       d="m 230.84894,208.74862 c 0.95206,-0.54968 1.27602,-1.75866 0.72635,-2.71071 l -3.96875,-6.87409 6.87405,-3.96875 c 0.95207,-0.54967 1.27601,-1.75864 0.72636,-2.71069 -0.54969,-0.95208 -1.75866,-1.27602 -2.71072,-0.72637 l -6.87408,3.96878 -3.96874,-6.87407 c -0.54967,-0.95206 -1.75866,-1.27602 -2.71071,-0.72636 -0.95206,0.54968 -1.27602,1.75866 -0.72635,2.71072 l 3.96875,6.87409 -6.87406,3.96872 c -0.95206,0.54967 -1.276,1.75865 -0.72635,2.71071 0.54969,0.95208 1.75866,1.27602 2.71072,0.72636 l 6.87408,-3.96876 3.96874,6.87406 c 0.54967,0.95207 1.75866,1.27602 2.71071,0.72636 z" />
    <path
       id="rect1-2-9-8-6"
       style="fill:#ffff59;stroke-width:3.96875;stroke-linecap:round;stroke-linejoin:round;stroke-dashoffset:7.70457;paint-order:stroke fill markers;stroke:#000000;stroke-opacity:1;stroke-dasharray:none"
       d="m 24.417383,220.82365 c -0.376004,-1.03305 -1.510359,-1.56201 -2.543398,-1.18602 l -7.458813,2.71479 -2.71479,-7.45881 c -0.375993,-1.03304 -1.51035,-1.56201 -2.5433904,-1.18601 -1.0330506,0.376 -1.5620063,1.51036 -1.1860078,2.5434 l 2.7147762,7.45882 -7.4587962,2.71477 c -1.0330506,0.37601 -1.562006,1.51036 -1.1860079,2.5434 0.3759974,1.03305 1.5103519,1.56201 2.5433926,1.18602 l 7.4588105,-2.71479 2.714792,7.4588 c 0.375993,1.03305 1.51035,1.56202 2.543389,1.18602 1.033051,-0.37601 1.562007,-1.51036 1.186008,-2.5434 l -2.714775,-7.45882 7.458804,-2.71478 c 1.033041,-0.376 1.562006,-1.51036 1.186006,-2.54339 z" />
    <path
       id="rect1-2-7-4-6-3"
       style="fill:#ffff59;stroke-width:3.96875;stroke-linecap:round;stroke-linejoin:round;stroke-dashoffset:7.70457;paint-order:stroke fill markers;stroke:#000000;stroke-opacity:1;stroke-dasharray:none"
       d="m 51.593747,224.89583 c 10e-7,-1.09935 -0.885032,-1.98438 -1.98437,-1.98439 l -7.937502,1e-5 0,-7.9375 c -3e-6,-1.09934 -0.885031,-1.98438 -1.984371,-1.98438 -1.099344,0 -1.98438,0.88503 -1.984377,1.98437 l -5e-6,7.93751 -7.937489,-1e-5 c -1.099344,0 -1.98438,0.88503 -1.984378,1.98437 -2e-6,1.09935 0.885028,1.98438 1.984365,1.98439 l 7.937502,-1e-5 10e-7,7.9375 c 4e-6,1.09934 0.885031,1.98438 1.984373,1.98438 1.099341,0 1.984377,-0.88503 1.984374,-1.98437 l 5e-6,-7.93751 7.937501,0 c 1.099341,0 1.984369,-0.88503 1.984371,-1.98436 z" />
    <path
       id="rect1-2-7-6-7-8-1"
       style="fill:#ffff59;stroke-width:3.96875;stroke-linecap:round;stroke-linejoin:round;stroke-dashoffset:7.70457;paint-order:stroke fill markers;stroke:#000000;stroke-opacity:1;stroke-dasharray:none"
       d="m 77.871196,226.96333 c 0.190901,-1.08265 -0.527002,-2.10792 -1.609636,-2.29883 l -7.816917,-1.37832 1.378333,-7.81691 c 0.190896,-1.08264 -0.527001,-2.10792 -1.609641,-2.29882 -1.082652,-0.19089 -2.107915,0.527 -2.298812,1.60964 l -1.378338,7.81692 -7.8169,-1.37834 c -1.082651,-0.19089 -2.107915,0.527 -2.298813,1.60964 -0.19091,1.08266 0.526999,2.10792 1.609634,2.29883 l 7.816915,1.37832 -1.378323,7.8169 c -0.190906,1.08265 0.526994,2.10793 1.609632,2.29883 1.08265,0.19089 2.107916,-0.527 2.298813,-1.60964 l 1.378338,-7.81692 7.816911,1.37833 c 1.08264,0.1909 2.107905,-0.52699 2.298804,-1.60963 z" />
    <path
       id="rect1-2-7-6-6-8-8-75"
       style="fill:#ffff59;stroke-width:3.96875;stroke-linecap:round;stroke-linejoin:round;stroke-dashoffset:7.70457;paint-order:stroke fill markers;stroke:#000000;stroke-opacity:1;stroke-dasharray:none"
       d="m 103.79238,228.96801 c 0.37599,-1.03306 -0.15297,-2.16741 -1.18599,-2.54342 l -7.458826,-2.71478 2.714786,-7.45881 c 0.375991,-1.03303 -0.152959,-2.1674 -1.186009,-2.5434 -1.033043,-0.376 -2.167396,0.15296 -2.543396,1.186 l -2.714783,7.45881 -7.458819,-2.71477 c -1.033041,-0.376 -2.167395,0.15296 -2.543387,1.18599 -0.376007,1.03305 0.15296,2.16741 1.186002,2.54341 l 7.458809,2.71478 -2.714772,7.45879 c -0.376017,1.03306 0.152946,2.16743 1.185992,2.54342 1.033048,0.376 2.1674,-0.15295 2.543399,-1.18599 l 2.714786,-7.45882 7.458808,2.71478 c 1.03304,0.376 2.16741,-0.15296 2.5434,-1.18599 z" />
    <path
       id="rect1-2-7-6-6-9-4-4-96"
       style="fill:#ffff59;stroke-width:3.96875;stroke-linecap:round;stroke-linejoin:round;stroke-dashoffset:7.70457;paint-order:stroke fill markers;stroke:#000000;stroke-opacity:1;stroke-dasharray:none"
       d="m 129.37361,230.84896 c 0.54967,-0.95207 0.22573,-2.16105 -0.72632,-2.71072 l -6.87409,-3.96875 3.96875,-6.87407 c 0.54967,-0.95206 0.22572,-2.16104 -0.72631,-2.71072 -0.95208,-0.54966 -2.16105,-0.22572 -2.71073,0.72633 l -3.96873,6.87407 -6.87408,-3.96873 c -0.95207,-0.54968 -2.16106,-0.22573 -2.71072,0.72631 -0.54967,0.95207 -0.22573,2.16105 0.72632,2.71073 l 6.87408,3.96873 -3.96874,6.87407 c -0.54966,0.95206 -0.22573,2.16105 0.72632,2.71072 0.95207,0.54967 2.16105,0.22573 2.71073,-0.72631 l 3.96873,-6.87409 6.87408,3.96874 c 0.95206,0.54968 2.16105,0.22573 2.71071,-0.72631 z" />
    <path
       id="rect1-2-7-6-6-9-3-5-3-21"
       style="fill:#ffff59;stroke-width:3.96875;stroke-linecap:round;stroke-linejoin:round;stroke-dashoffset:7.70457;paint-order:stroke fill markers;stroke:#000000;stroke-opacity:1;stroke-dasharray:none"
       d="m 155.83195,230.84896 c 0.54967,-0.95207 0.22573,-2.16105 -0.72633,-2.71072 l -6.87408,-3.96875 3.96874,-6.87407 c 0.54967,-0.95206 0.22574,-2.16103 -0.72631,-2.71071 -0.95207,-0.54968 -2.16105,-0.22574 -2.71073,0.72631 l -3.96873,6.87408 -6.87408,-3.96873 c -0.95206,-0.54968 -2.16104,-0.22574 -2.71072,0.72631 -0.54967,0.95207 -0.22573,2.16105 0.72633,2.71072 l 6.87408,3.96875 -3.96875,6.87406 c -0.54966,0.95206 -0.22573,2.16104 0.72632,2.71072 0.95208,0.54967 2.16104,0.22574 2.71073,-0.72631 l 3.96873,-6.87408 6.87408,3.96873 c 0.95206,0.54968 2.16104,0.22574 2.71072,-0.72631 z" />
    <path
       id="rect1-2-7-6-6-9-3-7-0-1-78"
       style="fill:#ffff59;stroke-width:3.96875;stroke-linecap:round;stroke-linejoin:round;stroke-dashoffset:7.70457;paint-order:stroke fill markers;stroke:#000000;stroke-opacity:1;stroke-dasharray:none"
       d="m 181.09988,232.54902 c 0.70663,-0.84216 0.59755,-2.08902 -0.24459,-2.79566 l -6.08049,-5.10213 5.10213,-6.08047 c 0.70664,-0.84214 0.59755,-2.08901 -0.24457,-2.79566 -0.84215,-0.70664 -2.08902,-0.59756 -2.79567,0.24457 l -5.1021,6.08049 -6.08049,-5.10211 c -0.84215,-0.70665 -2.08902,-0.59756 -2.79566,0.24456 -0.70664,0.84216 -0.59756,2.08903 0.24458,2.79567 l 6.08049,5.10213 -5.10213,6.08046 c -0.70663,0.84215 -0.59756,2.08901 0.24458,2.79566 0.84215,0.70664 2.08902,0.59756 2.79567,-0.24456 l 5.1021,-6.0805 6.08049,5.10212 c 0.84214,0.70665 2.08902,0.59756 2.79566,-0.24457 z" />
    <path
       id="rect1-2-7-6-6-9-3-7-2-3-4-5"
       style="fill:#ffff59;stroke-width:3.96875;stroke-linecap:round;stroke-linejoin:round;stroke-dashoffset:7.70457;paint-order:stroke fill markers;stroke:#000000;stroke-opacity:1;stroke-dasharray:none"
       d="m 206.09068,234.01655 c 0.84214,-0.70666 0.95123,-1.95352 0.24459,-2.79566 l -5.10213,-6.08048 6.08047,-5.10213 c 0.84215,-0.70664 0.95124,-1.95351 0.24461,-2.79565 -0.70665,-0.84214 -1.95352,-0.95123 -2.79567,-0.24461 l -6.08045,5.10214 -5.10214,-6.08047 c -0.70665,-0.84213 -1.95352,-0.95123 -2.79566,-0.2446 -0.84214,0.70665 -0.95124,1.95352 -0.2446,2.79566 l 5.10213,6.08049 -6.08047,5.1021 c -0.84215,0.70665 -0.95123,1.95351 -0.2446,2.79566 0.70665,0.84214 1.95352,0.95124 2.79567,0.24462 l 6.08046,-5.10215 5.10213,6.08048 c 0.70664,0.84214 1.95352,0.95123 2.79566,0.2446 z" />
    <path
       id="rect1-2-7-6-6-9-3-7-2-3-6-9-7"
       style="fill:#ffff59;stroke-width:3.96875;stroke-linecap:round;stroke-linejoin:round;stroke-dashoffset:7.70457;paint-order:stroke fill markers;stroke:#000000;stroke-opacity:1;stroke-dasharray:none"
       d="m 230.84894,235.20695 c 0.95206,-0.54968 1.27602,-1.75866 0.72635,-2.71071 l -3.96875,-6.87409 6.87405,-3.96875 c 0.95207,-0.54967 1.27601,-1.75864 0.72636,-2.71069 -0.54969,-0.95208 -1.75866,-1.27602 -2.71072,-0.72637 l -6.87408,3.96878 -3.96874,-6.87407 c -0.54967,-0.95206 -1.75866,-1.27602 -2.71071,-0.72636 -0.95206,0.54968 -1.27602,1.75866 -0.72635,2.71072 l 3.96875,6.87409 -6.87406,3.96872 c -0.95206,0.54967 -1.276,1.75865 -0.72635,2.71071 0.54969,0.95208 1.75866,1.27602 2.71072,0.72636 l 6.87408,-3.96876 3.96874,6.87406 c 0.54967,0.95207 1.75866,1.27602 2.71071,0.72636 z" />
  </g>
</svg>
