<?xml version="1.0" encoding="UTF-8" standalone="no"?>
<!-- Created with Inkscape (http://www.inkscape.org/) -->

<svg
   width="145.09485"
   height="136.57857"
   viewBox="0 0 38.389679 36.136413"
   version="1.1"
   id="svg1"
   inkscape:version="1.3.2 (091e20ef0f, 2023-11-25, custom)"
   sodipodi:docname="power_compare.svg"
   inkscape:export-filename="power_compare.png"
   inkscape:export-xdpi="100"
   inkscape:export-ydpi="100"
   xmlns:inkscape="http://www.inkscape.org/namespaces/inkscape"
   xmlns:sodipodi="http://sodipodi.sourceforge.net/DTD/sodipodi-0.dtd"
   xmlns="http://www.w3.org/2000/svg"
   xmlns:svg="http://www.w3.org/2000/svg">
  <sodipodi:namedview
     id="namedview1"
     pagecolor="#505050"
     bordercolor="#ffffff"
     borderopacity="1"
     inkscape:showpageshadow="0"
     inkscape:pageopacity="0"
     inkscape:pagecheckerboard="1"
     inkscape:deskcolor="#d1d1d1"
     inkscape:document-units="mm"
     inkscape:zoom="2.2326963"
     inkscape:cx="126.75257"
     inkscape:cy="97.63979"
     inkscape:window-width="1536"
     inkscape:window-height="864"
     inkscape:window-x="0"
     inkscape:window-y="0"
     inkscape:window-maximized="0"
     inkscape:current-layer="layer1"
     showguides="true">
    <sodipodi:guide
       position="35.35095,18.889036"
       orientation="1,0"
       id="guide14"
       inkscape:locked="false" />
    <sodipodi:guide
       position="4.4809156,22.667173"
       orientation="1,0"
       id="guide15"
       inkscape:locked="false" />
  </sodipodi:namedview>
  <defs
     id="defs1" />
  <g
     inkscape:label="Layer 1"
     inkscape:groupmode="layer"
     id="layer1"
     transform="translate(-50.18997,-93.335203)">
    <g
       id="g1">
      <path
         id="path1"
         style="fill:#ffff59;fill-opacity:1;stroke:#000000;stroke-width:0.2;stroke-linecap:round;stroke-linejoin:round;stroke-dasharray:none;stroke-dashoffset:7.70457;stroke-opacity:1"
         d="m 50.389967,111.49803 a 7.9745711,5.5890297 0 0 0 7.927411,5.12732 7.9745711,5.5890297 0 0 0 7.927743,-5.12732 z" />
      <path
         id="path2"
         style="fill:#ffff59;fill-opacity:1;stroke:#000000;stroke-width:0.2;stroke-linecap:round;stroke-linejoin:round;stroke-dasharray:none;stroke-dashoffset:7.70457;stroke-opacity:1"
         inkscape:transform-center-x="1.3554665"
         inkscape:transform-center-y="-1.0604281"
         d="m 60.210228,98.183104 -4.043038,5.790026 1.392328,0.566 -0.168138,6.32085 3.076516,-5.97202 -1.449783,-0.48266 z" />
    </g>
    <g
       id="g2">
      <path
         id="path1-1"
         style="fill:#ffff59;fill-opacity:1;stroke:#000000;stroke-width:0.2;stroke-linecap:round;stroke-linejoin:round;stroke-dasharray:none;stroke-dashoffset:7.70457;stroke-opacity:1"
         d="m 72.524495,106.76467 a 7.9745711,5.5890297 0 0 0 7.927411,5.12732 7.9745711,5.5890297 0 0 0 7.927743,-5.12732 z" />
      <path
         id="path2-9"
         style="fill:#ffff59;fill-opacity:1;stroke:#000000;stroke-width:0.2;stroke-linecap:round;stroke-linejoin:round;stroke-dasharray:none;stroke-dashoffset:7.70457;stroke-opacity:1"
         inkscape:transform-center-x="1.3554665"
         inkscape:transform-center-y="-1.0604281"
         d="m 82.344756,93.449747 -4.043038,5.790022 1.392328,0.566 -0.168138,6.320851 3.076516,-5.97202 -1.449783,-0.482661 z" />
    </g>
    <path
       id="rect12"
       style="fill:#ffff59;stroke:#000000;stroke-width:0.2;stroke-linecap:round;stroke-linejoin:round;stroke-dashoffset:7.70457;stroke-dasharray:none"
       d="m 70.125642,113.89426 c -0.51521,-0.006 -1.009061,0.29263 -1.304319,0.80972 -0.162358,0.23214 -0.273132,0.50686 -0.323632,0.79941 l -4.062407,11.05225 c -0.342956,0.93304 0.01891,2.00915 0.811657,2.41279 l 0.265914,0.13526 c 0.792753,0.40365 1.707059,-0.0223 2.050012,-0.95529 l 2.63853,-7.17953 2.640075,7.18256 c 0.342953,0.93303 1.257264,1.35893 2.050014,0.95529 l 0.265398,-0.13525 c 0.79275,-0.40365 1.155125,-1.47976 0.812173,-2.41279 l -4.0588,-11.04195 c -0.05041,-0.30654 -0.168019,-0.59369 -0.340638,-0.83398 -0.307502,-0.52088 -0.819444,-0.80929 -1.346578,-0.78121 -0.03257,-0.002 -0.06495,-0.007 -0.0974,-0.007 z" />
    <rect
       style="fill:#ffff59;fill-opacity:1;stroke:#000000;stroke-width:0.2;stroke-linecap:round;stroke-linejoin:round;stroke-dasharray:none;stroke-dashoffset:7.70457;paint-order:normal"
       id="rect15"
       width="28.678246"
       height="3.0628715"
       x="28.850758"
       y="127.48666"
       ry="1.5314357"
       transform="rotate(-12.554749)" />
    <circle
       style="fill:#ffff59;fill-opacity:1;stroke:#000000;stroke-width:0.2;stroke-linecap:round;stroke-linejoin:round;stroke-dasharray:none;stroke-dashoffset:7.70457;stroke-opacity:1"
       id="path9-6"
       cx="70.202133"
       cy="116.57583"
       r="0.5478968" />
  </g>
</svg>
